<svg xmlns="http://www.w3.org/2000/svg" viewBox="0 0 137.778 194.704">
  <title>flower</title>
  <g id="Layer_2" data-name="Layer 2">
    <g>
      <path d="M227.6,103.672c.023-.128-.205-.191-.864-.083-6.437,1.057-12.882,2.09-19.311,3.175-5.13.865-10.2,1.909-14.735,4-4.189,1.937-7.739,5.243-7.516,9.147a4.182,4.182,0,0,0,.209.926,8.075,8.075,0,0,0-1.327.245,48.7,48.7,0,0,1-16.843,1.185,94.3,94.3,0,0,0,17.418-21.38,10.55,10.55,0,0,0,8.184-4.611c2.533-3.645,1.954-7.665-1.293-8.979s-7.931.576-10.464,4.221c-2.369,3.409-1.984,7.116.727,8.661-8.174,14.252-21.112,26.842-37.394,36.241a278.719,278.719,0,0,0,5.838-56.947c0-1.607-.05-3.213-.083-4.819a9.387,9.387,0,0,0,6.4-9.216c0-5.271-3.807-9.545-8.5-9.545s-8.5,4.274-8.5,9.545c0,4.665,2.984,8.534,6.923,9.368a276.329,276.329,0,0,1-1.8,37.474A68.558,68.558,0,0,1,127.6,96.819a7.083,7.083,0,0,0,1.746-1.855c2.741-4.469.7-9.639-2.951-13.449-3.951-4.118-9.2-7.214-14.637-10.122-6.808-3.645-13.666-7.236-20.5-10.852-.7-.37-1.007-.38-1.061-.223-.15-.01-.24.021-.23.107.042.392.093.783.146,1.173a84.2,84.2,0,0,0,4.715,19.357c2.939,7.542,8.233,15,18.787,17.612,3.759.928,8.525.956,12.028-.593a70.543,70.543,0,0,0,18.7,16.443c.017.01.04.011.058.02a283.9,283.9,0,0,1-7.457,38.234,21.245,21.245,0,0,1-9.377-7.178,5.485,5.485,0,0,0,1.032-1.219c2.169-3.537.557-7.627-2.333-10.64-3.127-3.259-7.283-5.708-11.581-8.009-5.386-2.883-10.812-5.724-16.218-8.585-.555-.293-.8-.3-.84-.177-.118-.007-.189.017-.182.085.034.31.074.619.116.928a66.667,66.667,0,0,0,3.73,15.315c2.326,5.966,6.514,11.87,14.863,13.933a15.765,15.765,0,0,0,9.493-.46,22.919,22.919,0,0,0,10.807,7.463.792.792,0,0,0,.105.013,295.924,295.924,0,0,1-13.08,37.708q-1.6,3.768-3.312,7.5c-.486,1.066,3.219.71,3.682-.306A294.787,294.787,0,0,0,143.9,138.8a2.032,2.032,0,0,0,.46-.171,116.629,116.629,0,0,0,21.412-15.026,59.337,59.337,0,0,0,19.622-1.684,3.8,3.8,0,0,0,.384-.133c1.517,2.7,5.758,4.181,9.461,4.411,8.754.543,15.6-3.684,20.752-8.515a85.9,85.9,0,0,0,11.16-13.057c.2-.273.388-.547.575-.823C227.768,103.743,227.715,103.7,227.6,103.672Z" transform="translate(-89.963 -5.296)" style="fill: #ecf1fa"/>
      <g>
        <path d="M151.472,61.96a21.114,21.114,0,0,1,10.945,8.334,6.583,6.583,0,0,0-4.325-9.38A7.556,7.556,0,0,0,151.472,61.96Z" transform="translate(-89.963 -5.296)" style="fill: #ecf1fa"/>
        <path d="M141.926,60.41a2.3,2.3,0,0,1-.405,2.839,15.617,15.617,0,0,1-2.7,2.167,13.144,13.144,0,0,0-5.506,8.187,24.132,24.132,0,0,1-.894-7.482A9.424,9.424,0,0,1,136.1,59.31C138.21,59.046,140.892,58.978,141.926,60.41Z" transform="translate(-89.963 -5.296)" style="fill: #ecf1fa"/>
        <path d="M148.76,72.645A25.69,25.69,0,0,0,153.528,60.9a26.767,26.767,0,0,0-10.581.242,17.315,17.315,0,0,1,5.532,11.16.4.4,0,0,1,.56-.025C149.158,72.422,148.988,72.65,148.76,72.645Z" transform="translate(-89.963 -5.296)" style="fill: #ecf1fa"/>
      </g>
      <path d="M108.7,30.38c-.8,3.816.854,7.655,2.482,11.315,1.458,3.277,3.039,6.7,6.4,9.03,2.4,1.663,5.5,2.61,8.109,4.073,3.648,2.041,6.285,5.048,10.154,6.836,4.107,1.9,9.23,2.2,13.938,1.488a52.547,52.547,0,0,0,13.237-4.2c4.482-1.971,8.868-4.208,12.165-7.25s5.416-7.009,4.774-10.927c-.356-2.168-1.531-4.269-1.379-6.45a4.788,4.788,0,0,1,5.259-4.181c-1.107-1.836-4.559-2.547-6.727-1.386a2.948,2.948,0,0,0,1.786-3.436,8.831,8.831,0,0,0-2.271-3.518,38.959,38.959,0,0,0-7.959-7.379,18.585,18.585,0,0,0-11.543-3.034c-.732-3.089-4.62-5.317-8.667-5.876s-8.2.237-12.078,1.286c-5.037,1.362-10.03,3.251-13.433,6.4s-4.864,7.779-2.4,11.4a17.5,17.5,0,0,0-12.286-3.026,4.3,4.3,0,0,1,1.687,4.292C109.732,27.37,109.023,28.849,108.7,30.38Z" transform="translate(-89.963 -5.296)" style="fill: #f29a7f"/>
      <g>
        <path d="M123.358,21.13c1.855-3.345,6.085-5.406,10.328-6.715,13.928-4.295,33.041-.952,36.577,11.553a10.254,10.254,0,0,1-1.023,7.91c-1.784,3.169-5.448,5.532-8.882,7.64-3.668,2.252-7.454,4.411-10.007,7.491-2.366,2.856-3.414,6.931-1,9.94.436.287-.639.543-.982.328-6.2-3.9-7.326-11.208-2.737-16.188,3.043-3.3,8.158-4.888,10.617-8.617a9.987,9.987,0,0,0,.071-10.926c-2.241-3.621-7.151-6.058-12.246-6.647-5.337-.618-11.318,1.37-13.226,5.389-1.94,4.087,1.951,8.583,6.385,10.641a11.461,11.461,0,0,0,8.522.468c2.8-.975,4.042-3.229,3.446-5.445-.5-1.864-2.693-2.927-5.027-3.11a3.647,3.647,0,0,0-4.191,3.605.063.063,0,0,1-.017.07c-.128.322-1.1.351-1.14.043-2.889-2.629-.509-5.922,3.248-6.96a10.188,10.188,0,0,1,8.968,1.97,6.511,6.511,0,0,1,1.875,8.034c-1.446,2.939-5.2,4.9-8.965,5.845-7.868,1.965-17.21-1.086-20.62-6.837A9.4,9.4,0,0,1,123.358,21.13Z" transform="translate(-89.963 -5.296)" style="fill: #f37a8b"/>
        <path d="M131.643,41.937c-2.847-1.814-6.144-3.24-8.618-5.348-4.014-3.421-5.346-8.155-6.529-12.658a17.22,17.22,0,0,0-2.905,10.8,13.856,13.856,0,0,0,6.014,9.879c3.653,2.55,8.537,3.741,12.977,5.411s8.863,4.232,9.872,7.931C141.839,51.8,137.848,45.889,131.643,41.937Z" transform="translate(-89.963 -5.296)" style="fill: #f37a8b"/>
        <path d="M174.692,34.562a8.721,8.721,0,0,1-.625,9.169c-1.845,2.828-4.992,5.077-8.539,6.706-2.405,1.105-5.017,1.953-7.3,3.205s-4.266,3.023-4.655,5.146a6.6,6.6,0,0,1,.1-9.477c2.192-2.182,5.67-3.32,8.889-4.553a32.349,32.349,0,0,0,7.788-3.977C172.6,39.107,174.315,36.939,174.692,34.562Z" transform="translate(-89.963 -5.296)" style="fill: #f37a8b"/>
      </g>
      <path d="M180.209,81.068c-.7,4.11-.878,8.794,2.833,11.82,2.5,2.035,6.359,2.866,10,2.667a29.976,29.976,0,0,0,10.266-2.7A44.367,44.367,0,0,0,222,78.195c1.351-1.926,2.5-4.119,1.871-6.251-.689-2.321-3.314-3.988-5.929-5.284a59.2,59.2,0,0,0-10.206-3.907,27.976,27.976,0,0,0-9.558-1.269,18.713,18.713,0,0,0-13.3,7.225C182.043,72.446,180.941,76.788,180.209,81.068Z" transform="translate(-89.963 -5.296)" style="fill: #f29a7f"/>
      <path d="M199.947,72.95c3.279,2.748,11.34,1.337,6.611-.905-1.785-.778-11.743-3.348-10.754.672.98,3.868,16.59,7.087,19.827,3.99,6.476-5.313-16.524-11.72-22.2-8.4-10.4,5.051-.124,17.069-4.737,24.247,3.422-8.466-9.373-19.639,2.3-26.5,14.732-9.961,41.823,11.255,24.3,14.844-6.45,1.29-23.817-1.467-23.032-8.586.613-5.4,9.181-4.212,13.533-2.418C214.794,73.6,204.418,78.047,199.947,72.95Z" transform="translate(-89.963 -5.296)" style="fill: #f37a8b"/>
    </g>
  </g>
</svg>
