<svg id="Layer_1" data-name="Layer 1" xmlns="http://www.w3.org/2000/svg" xmlns:xlink="http://www.w3.org/1999/xlink" viewBox="0 0 237.001 52.182">
    <defs>
      <clipPath id="clip-path" transform="translate(-64.813 -32.514)">
        <path id="t" d="M68.209,45.958a2.428,2.428,0,0,1-2.22-.492,1.678,1.678,0,0,1-.42-1.474,1.825,1.825,0,0,1,.58-1.008,4.039,4.039,0,0,1,1.7-.713q.439-.1,1.14-.245t1.34-.3q1.32-.2,2.18-.344c.574-.1,1.166-.179,1.78-.245s1.386-.131,2.32-.2q1.16-.1,2.8-.246.12,0,.84.1t1.56.246a4.949,4.949,0,0,1,1.24.344,2.92,2.92,0,0,1,1.48.884,3.089,3.089,0,0,1,.72,1.475,1.715,1.715,0,0,1,0,.909,1.013,1.013,0,0,1-.44.516q-.921.345-1.5.565a1.447,1.447,0,0,1-1.14-.024,2.643,2.643,0,0,0-.46-.442,2.244,2.244,0,0,0-.88-.32,18.176,18.176,0,0,0-1.94-.221,15.31,15.31,0,0,1-1.96.147q-.84,0-.84.246l-2.36.148-1.96.245q-.4.05-1.12.123c-.48.05-.947.1-1.4.148A6.887,6.887,0,0,0,68.209,45.958Zm-.36,28.9a1.282,1.282,0,0,1-1.2-.834,2.857,2.857,0,0,1-.44-1.475,15.052,15.052,0,0,1,.36-2.261q.319-1.473.72-3t.72-2.408c.106-.525.206-.991.3-1.4s.153-.68.18-.811a6.254,6.254,0,0,0,.38-1.032,16.751,16.751,0,0,0,.42-1.622q.079-.393.34-1.5t.64-2.58q.38-1.474.76-2.9t.66-2.506c.186-.72.307-1.2.36-1.425a5.966,5.966,0,0,0,.48-1.13c.106-.361.173-.606.2-.738a.761.761,0,0,0,.28-.516,4.264,4.264,0,0,0,.04-.516.545.545,0,0,1,.14-.393.483.483,0,0,0,.14-.344c.107-.1.173-.114.2-.049s.106.017.24-.147l.2-1.671,3.56-.05q-.079.591-.24,1.45a11.951,11.951,0,0,1-.76,2.286,15.514,15.514,0,0,1-.46,1.769,2.864,2.864,0,0,0-.22,1.032,5.236,5.236,0,0,0-.34.983q-.261.883-.6,2.162t-.68,2.556q-.341,1.278-.6,2.235t-.34,1.2a19.731,19.731,0,0,0-.72,2.31q-.4,1.524-1.2,4.128-.321.786-.78,2.358t-.74,2.851a20.135,20.135,0,0,1-.78,2.752,2.265,2.265,0,0,1-.62,1.008A1.594,1.594,0,0,1,67.849,74.854Z" style="fill: none"/>
      </clipPath>
      <clipPath id="clip-path-2" transform="translate(-64.813 -32.514)">
        <path id="h" d="M83.568,70.383a.749.749,0,0,1-.62-.271c-.227-.213-.433-.4-.62-.565a4.9,4.9,0,0,1-.56-1.031,2.889,2.889,0,0,1-.16-.984,12.14,12.14,0,0,1,.08-1.277q.2-.787.48-2.113t.68-2.851a11.122,11.122,0,0,1,.3-1.4q.219-.81.46-1.573t.36-1.154q.281-1.228.58-2.359t.74-2.605q.441-1.474,1.08-3.735.881-2.949,1.32-4.423t.64-2.113q.2-.639.28-1.032a1.012,1.012,0,0,1,.46-.762,1.382,1.382,0,0,1,.82-.369,1.583,1.583,0,0,1,1.08.811,4.759,4.759,0,0,1,.72,1.819,3.178,3.178,0,0,1-.28,2.039q-.641,1.77-1.26,3.956t-1.22,4.35q-.6,2.163-1.2,3.98a5.238,5.238,0,0,1-.261.836q-.221.59-.38.983t-.44,1.081c-.026.2-.08.475-.16.835s-.16.672-.239.935c-.028.164-.067.377-.121.638s-.093.525-.12.786a8.452,8.452,0,0,1,.56-.712q.36-.417.92-1.057.641-.689,1.12-1.179a12.254,12.254,0,0,1,.96-.885q.44-.393,1.2-1.081c.053-.1.113-.213.18-.344a.488.488,0,0,1,.22-.246,2.417,2.417,0,0,1,.28-.27c.134-.115.266-.238.4-.369a3.953,3.953,0,0,1,.76-.491,3.925,3.925,0,0,1,1.68-.393,1.535,1.535,0,0,1,1,.466,4.654,4.654,0,0,1,.961,1.3,3.577,3.577,0,0,1,.5,1.5,14.174,14.174,0,0,1,.019,2.285,10.9,10.9,0,0,1-.18,1.474q-.18,1.081-.26,1.623l-.36,1.67h.32a1.811,1.811,0,0,1,1.28.1,2.658,2.658,0,0,1,.38.345,1.686,1.686,0,0,0,.34.3,1.238,1.238,0,0,1-.08,1.13,2.488,2.488,0,0,1-.72,1.032,4.778,4.778,0,0,1-1.7.982,1.834,1.834,0,0,1-1.539-.343,3.094,3.094,0,0,1-1.02-1.524,8.073,8.073,0,0,1-.221-2.408q.16-2.163.2-3.12c.026-.64-.106-.959-.4-.959a2.59,2.59,0,0,0-1.3.565,15.012,15.012,0,0,0-1.82,1.524,27.824,27.824,0,0,0-1.98,2.113,22.328,22.328,0,0,0-1.74,2.334q-.48.738-1.04,1.45A1.823,1.823,0,0,1,83.568,70.383Z" style="fill: none"/>
      </clipPath>
      <clipPath id="clip-path-3" transform="translate(-64.813 -32.514)">
        <path id="i" d="M101.048,71.415a2.571,2.571,0,0,1-.46-1.18,6.769,6.769,0,0,1-.1-1.547,3.778,3.778,0,0,1,.2-1.156,1.521,1.521,0,0,1,.1-.614.676.676,0,0,0,.06-.418,1.831,1.831,0,0,1,.08-.687q.12-.492.24-.934.279-.788.64-2.04t.72-2.556q.36-1.3.6-2.261t.28-1.154q0-.59.64-.639.48-.2,1.16.491a5.961,5.961,0,0,1,1.08,1.475,1.309,1.309,0,0,1,.24,1.032,8.831,8.831,0,0,1-.52,1.818,10.122,10.122,0,0,0-.38,1.3,15.225,15.225,0,0,0-.3,1.5q-.16.393-.38,1.1t-.38,1.352a5.611,5.611,0,0,0-.16.909q-.081.663-.2,1.351a3.945,3.945,0,0,1-.32,1.082q-.36,2.015-1.26,2.359A1.272,1.272,0,0,1,101.048,71.415Zm4.32-19.707a2.46,2.46,0,0,1-.66-.959,3.231,3.231,0,0,1-.24-1.007,1.007,1.007,0,0,1,.06-.541,5.224,5.224,0,0,0,.7-1.425,13.815,13.815,0,0,1,.66-1.622c.053-.1.127-.237.22-.418a.586.586,0,0,1,.3-.319q.48-.393,1.34.049a2.8,2.8,0,0,1,1.26,1.229,3.769,3.769,0,0,1,.22,1.916,5.063,5.063,0,0,1-.86,2.064,2.662,2.662,0,0,1-1.52,1.254A1.483,1.483,0,0,1,105.368,51.708Z" style="fill: none"/>
      </clipPath>
      <clipPath id="clip-path-4" transform="translate(-64.813 -32.514)">
        <path id="s" d="M112.528,72.545a4.1,4.1,0,0,1-2.34-.713,5.6,5.6,0,0,1-1.7-1.769,3.934,3.934,0,0,1-.64-2.04,1.129,1.129,0,0,1,.14-.638.481.481,0,0,1,.42-.2,1.581,1.581,0,0,1,.48.246,6.926,6.926,0,0,1,.56.442,3.039,3.039,0,0,0,1.4.688,2.205,2.205,0,0,0,1.36-.123,1.065,1.065,0,0,0,.68-.86,4.615,4.615,0,0,0-.16-.835,9.137,9.137,0,0,0-.4-1.228,10.343,10.343,0,0,1-1.24-3.465q-.24-1.647-.32-3.318a3.069,3.069,0,0,1,.52-1.548,10.9,10.9,0,0,1,1.28-1.7,16.139,16.139,0,0,1,1.86-1.671,15,15,0,0,1,2.02-1.327,5.353,5.353,0,0,1,1.68-.639q.72,0,1.54.074a1.758,1.758,0,0,1,1.1.368,5.025,5.025,0,0,1,1.04,1.769,5.91,5.91,0,0,1,.48,2.064,1.971,1.971,0,0,1-.34.959,8.971,8.971,0,0,0-.62,1.253,5.665,5.665,0,0,0-.28.737q-.12.395-.28.787-.24.689-.86.565a1.959,1.959,0,0,1-1.14-.786,2.439,2.439,0,0,1-.52-1.549,2.257,2.257,0,0,1,.36-1.278,1.814,1.814,0,0,0,.36-.736.163.163,0,0,0-.08-.148.584.584,0,0,0-.28-.049,2.659,2.659,0,0,0-.9.27,7.067,7.067,0,0,0-1.3.762,6.532,6.532,0,0,0-1.24,1.179,5.615,5.615,0,0,0-.66,1.155,3.3,3.3,0,0,0-.26,1.3,6.882,6.882,0,0,0,.22,1.6,7.764,7.764,0,0,0,.5,1.5,2.883,2.883,0,0,1,.26.516q.18.417.42,1.008,1.479,3.735.5,5.553A3.74,3.74,0,0,1,112.528,72.545Z" style="fill: none"/>
      </clipPath>
      <clipPath id="clip-path-5" transform="translate(-64.813 -32.514)">
        <path id="i2" d="M135.287,72.2q-.96,0-1.66-1.253a7.537,7.537,0,0,1-.86-3.022q.039-.393.1-1.131t.14-1.524q.159-.933.44-2.408t.6-2.973q.319-1.5.56-2.6t.28-1.3q.24-.687,1.08-.344a3.014,3.014,0,0,1,1.44,1.474,2.252,2.252,0,0,1,.3.934,6.028,6.028,0,0,1-.12,1.573q-.18,1.032-.66,3.047-.441,1.966-.66,3.17a12.127,12.127,0,0,0-.18,2.531,30.033,30.033,0,0,1-.32,3.071C135.66,71.979,135.5,72.234,135.287,72.2Zm3.68-20.395a.363.363,0,0,1-.3.123,1.334,1.334,0,0,1-.46-.271,1.514,1.514,0,0,1-.7-.467,5.807,5.807,0,0,1-.72-.859,1.754,1.754,0,0,1-.3-.541,10.108,10.108,0,0,1,.06-1.573,8.334,8.334,0,0,1,.44-2.039q.339-.959.94-1.008a2.821,2.821,0,0,1,.7.2,11.7,11.7,0,0,1,1.14.491,11.839,11.839,0,0,1,.6,1.917,5.3,5.3,0,0,1,.06,2.285A2.522,2.522,0,0,1,138.967,51.806Z" style="fill: none"/>
      </clipPath>
      <clipPath id="clip-path-6" transform="translate(-64.813 -32.514)">
        <path id="s2" d="M144.247,72.6a3.376,3.376,0,0,1-3.12-1.672,4.4,4.4,0,0,1-.26-1.6,2.051,2.051,0,0,1,.3-1.18q.281-.368.68.172a2.407,2.407,0,0,0,1.48.394q.48,0,.86-.024t.9-.075a1.314,1.314,0,0,0,1.18-.687.809.809,0,0,0-.14-.984h.04a9.559,9.559,0,0,1-2.12-.982,7.767,7.767,0,0,1-1.76-1.45,3.182,3.182,0,0,1-.84-1.548,7.134,7.134,0,0,1,.16-3.342,9.414,9.414,0,0,1,1.4-3q.36-.3,1-.86a2.548,2.548,0,0,1,.92-.615v.05a6.847,6.847,0,0,1,1.72-1.6,14.939,14.939,0,0,1,2.24-1.155l.64-.1a4.3,4.3,0,0,1,.84-.1c-.027,0,.04.033.2.1s.293.115.4.148a.912.912,0,0,0,.48.147,1.979,1.979,0,0,1,1.1.713,5.17,5.17,0,0,1,.88,1.425,3,3,0,0,1,.26,1.5,6.433,6.433,0,0,1-.68,2.236q-.561,1.105-1.2,1.253c.053-.032,0-.1-.16-.2s-.307-.2-.44-.295l-.16.1a2.086,2.086,0,0,0-.12-.491,2.691,2.691,0,0,1-.22-.737,3.816,3.816,0,0,1-.02-.885,2,2,0,0,0,.04-.639c-.027-.065-.187-.115-.48-.147a2.265,2.265,0,0,0-1.32.122,4.07,4.07,0,0,0-1.48.909,13.294,13.294,0,0,0-1.18,1.033,3.551,3.551,0,0,0-.58.761,7.426,7.426,0,0,0-.44,1.057c-.107.229-.2.435-.28.614a1.278,1.278,0,0,0-.12.516,1.377,1.377,0,0,0,.68,1.008,13.938,13.938,0,0,0,2.04,1.2,2.7,2.7,0,0,1,1.42,1.475q.339.933.62,1.768a4.529,4.529,0,0,1,.18.713c.067.344.073.549.02.615a.312.312,0,0,1,.08.2v-.049a1.73,1.73,0,0,1-.1,1.548,4.41,4.41,0,0,1-1.3,1.474,5.678,5.678,0,0,1-2,.958h.04q-.6.1-1.18.148C144.96,72.577,144.593,72.6,144.247,72.6Z" style="fill: none"/>
      </clipPath>
      <clipPath id="clip-path-7" transform="translate(-64.813 -32.514)">
        <path id="v" d="M167.126,69.646a5.811,5.811,0,0,1-.74-1.77q-.459-1.473-.88-3.439t-.66-3.638q-.161-.983-.34-1.671t-.3-1.13a3.365,3.365,0,0,1,.139-1.868,2.67,2.67,0,0,1,.821-1.326,1.719,1.719,0,0,1,.739-.221,2.09,2.09,0,0,1,.7-.025q.48.2.88,1.794a36.29,36.29,0,0,1,.721,4.2q.159,1.523.259,2.236a8.865,8.865,0,0,1,.1.909,3.592,3.592,0,0,1,.22.958q.06.566.381.172.157-.195.5-.687t.819-1.279q.84-1.376,1.34-2.285t1.14-1.892a8.091,8.091,0,0,1,.76-1.081q.48-.589.961-1.106a2.118,2.118,0,0,1,.8-.614q.96-.2,1.18.86a3.483,3.483,0,0,1-.58,2.433,7.7,7.7,0,0,0-.5,1.105,2.526,2.526,0,0,1-.34.713,18.111,18.111,0,0,1-1,1.99q-.681,1.206-1.32,2.212t-.88,1.3c-.107.132-.339.377-.7.737a6.628,6.628,0,0,0-1.02,1.376,4,4,0,0,1-1.84,1.376A1.191,1.191,0,0,1,167.126,69.646Z" style="fill: none"/>
      </clipPath>
      <clipPath id="clip-path-8" transform="translate(-64.813 -32.514)">
        <path id="e" d="M179.886,71.808a4.262,4.262,0,0,1-2.16-2.556,11.627,11.627,0,0,1-.32-4.718,7.09,7.09,0,0,0-.08-2.039,2.754,2.754,0,0,0-.6-1.008,5.237,5.237,0,0,0-.56-.663q-.441-.466-.4-.713a2.146,2.146,0,0,1,.12-.86c.106-.344.2-.532.28-.565q.281-.147.58-.344c.2-.131.353-.163.46-.1a1.06,1.06,0,0,1,.5.245c.226.165.34.312.34.443q.159.343.5-.3t.74-1.622a7.2,7.2,0,0,1,1-1.474,15.328,15.328,0,0,1,1.22-1.253,9.453,9.453,0,0,1,1.059-.86,7.546,7.546,0,0,1,.78-.295,9.423,9.423,0,0,1,1.22-.32,3.13,3.13,0,0,1,.961-.073,2.678,2.678,0,0,1,1.52.737,8.42,8.42,0,0,1,1.24,1.277,2.291,2.291,0,0,1,.7,1.352A8.066,8.066,0,0,1,189.126,58a5.03,5.03,0,0,1-.32,1.671,4.1,4.1,0,0,1-.84,1.376,17.93,17.93,0,0,1-1.58,1.7,6.544,6.544,0,0,1-1.461,1.106,7.362,7.362,0,0,1-1.238.22,6.014,6.014,0,0,1-1.342,0,2.32,2.32,0,0,1-.86-.22q-.279-.2-.46.123a5.631,5.631,0,0,0-.3,1.7,4.2,4.2,0,0,0,.02.934,2.71,2.71,0,0,0,.14.589,2.978,2.978,0,0,0,.56.861,1.268,1.268,0,0,0,1.039.172,2.5,2.5,0,0,0,1.541-1.156,15.088,15.088,0,0,1,1.42-1.695.938.938,0,0,1,.7-.467,2.482,2.482,0,0,1,1.3.123,1.246,1.246,0,0,1,.42,1.081,6.357,6.357,0,0,1-.66,2.163,3.992,3.992,0,0,1-.66,1.007c-.359.443-.748.884-1.16,1.327a8.382,8.382,0,0,1-1.02.959,3.989,3.989,0,0,1-2.361.737A5.575,5.575,0,0,1,179.886,71.808Zm2.959-11.058a9.089,9.089,0,0,0,1.021-.393,2.637,2.637,0,0,0,.821-.639,8.5,8.5,0,0,0,.919-1.327,4.173,4.173,0,0,0,.18-.933.883.883,0,0,0-.06-.492.62.62,0,0,0-.7-.27,2.379,2.379,0,0,0-.82.516,4.161,4.161,0,0,0-.781.614,10.575,10.575,0,0,0-.959,1.032,7.286,7.286,0,0,0-.72,1.032q-.261.468-.1.565c-.054.131.1.214.459.246S182.712,60.75,182.845,60.75Z" style="fill: none"/>
      </clipPath>
      <clipPath id="clip-path-9" transform="translate(-64.813 -32.514)">
        <path id="r" d="M193.766,71.218a.972.972,0,0,1-.5-.049,6.715,6.715,0,0,1-.76-.246,1.293,1.293,0,0,1-.46-.245,5.025,5.025,0,0,1-.441-.713,3.1,3.1,0,0,1-.3-1.4,4.332,4.332,0,0,1,.66-2.113,15.23,15.23,0,0,0,.479-1.474q.281-.983.58-2.089t.56-1.991q.261-.883.381-1.228a2.905,2.905,0,0,0-.061-1.2.732.732,0,0,0-.7-.418.694.694,0,0,1-.62-.344,2.437,2.437,0,0,1-.22-1.228,4.393,4.393,0,0,1,.3-1.2,2.31,2.31,0,0,1,.62-.86,2.778,2.778,0,0,1,1.021-.345,5.164,5.164,0,0,1,1.219-.049,1.161,1.161,0,0,1,.84.344,1.532,1.532,0,0,1,.46.86c.12.443.221.893.3,1.352s.134.8.16,1.032a8.07,8.07,0,0,0,.9-1.106q.5-.712,1.019-1.352a14.792,14.792,0,0,1,1.521-1.1,2.9,2.9,0,0,1,1.28-.565,1.884,1.884,0,0,1,1.079.516,2.6,2.6,0,0,1,.8.909,7.4,7.4,0,0,1,.58,1.744,2.1,2.1,0,0,1-.261,1.6,5.547,5.547,0,0,1-1.12,1.253,1.953,1.953,0,0,1-1.8.369c-.16-.066-.326-.311-.5-.738a4.412,4.412,0,0,1-.3-.933c0-.1-.113-.008-.339.27s-.495.614-.8,1.007-.594.755-.861,1.082a18.369,18.369,0,0,0-1.439,2.8q-.762,1.769-1.8,4.276-.479,1.228-.8,2.334C194.231,70.7,194.006,71.12,193.766,71.218Z" style="fill: none"/>
      </clipPath>
      <clipPath id="clip-path-10" transform="translate(-64.813 -32.514)">
        <path id="y" d="M206.745,83.8a1.44,1.44,0,0,1-.5-.688,2.683,2.683,0,0,1-.12-1.278,3.9,3.9,0,0,1,.06-1.695,22.174,22.174,0,0,1,.98-2.973,12.338,12.338,0,0,0,.74-1.868q.339-1.082.78-2.162.2-.443.7-1.524t1.12-2.58q.62-1.5,1.14-3.121-1.041,1.328-1.78,2.483a15.892,15.892,0,0,1-1.32,1.818,1.478,1.478,0,0,1-1.22.614,3.257,3.257,0,0,1-1.24-.836,3.084,3.084,0,0,1-.92-1.523,15.523,15.523,0,0,1-.1-2.752q.06-1.669.5-5.062a13.207,13.207,0,0,0,.3-2.58,3.655,3.655,0,0,0-.22-1.352,2.929,2.929,0,0,0-.52-.786.969.969,0,0,1-.08-1.278,3.205,3.205,0,0,1,1-1.032,2.694,2.694,0,0,1,1.34-.123,1.967,1.967,0,0,1,1.02.86q.319.64.64,1.376a5.507,5.507,0,0,1,.32,2.114q0,.59-.04,1.3t-.08,1.3c-.027.394-.054.7-.08.935q-.4,1.818-.72,3.144t-.12,1.327a16.223,16.223,0,0,0,1.38-1.523q.579-.736,1.26-1.77t1.68-2.7q.36-.836.72-1.622a11.624,11.624,0,0,0,.6-1.622,9.994,9.994,0,0,1,.639-1.351q.4-.713.561-.762a.692.692,0,0,1,.56.049c.24.1.473.2.7.319s.34.206.34.27a.923.923,0,0,0,.4.1q.36.05.72.074c.24.016.36.074.36.172a4.534,4.534,0,0,1-.221.737q-.219.639-.5,1.425t-.5,1.4a1.85,1.85,0,0,0-.179.712c.053.066.013.3-.12.713s-.287.86-.46,1.352-.327.934-.46,1.326q-.4,1.622-.92,3.22a29.787,29.787,0,0,1-1.24,3.169q-.242.59-.7,1.818t-.881,2.433q-.418,1.2-.659,1.844-.16.392-.46,1.253c-.2.572-.414,1.2-.64,1.891s-.447,1.335-.66,1.942-.374,1.073-.48,1.4a3.17,3.17,0,0,1-.36,1.376,2.077,2.077,0,0,1-1.6.442A.606.606,0,0,1,206.745,83.8Z" style="fill: none"/>
      </clipPath>
      <clipPath id="clip-path-11" transform="translate(-64.813 -32.514)">
        <path id="c" d="M233.124,72.447a3.741,3.741,0,0,1-2.3-.246,4.274,4.274,0,0,1-1.88-1.6,4.7,4.7,0,0,1-.74-2.678,14.554,14.554,0,0,1,.22-3.514,26.107,26.107,0,0,1,1.04-4.1,15.844,15.844,0,0,1,1.62-3.49q.8-1.179,1.6-2.162a5.252,5.252,0,0,1,1.439-1.327,5.375,5.375,0,0,1,1.38-.467,6.692,6.692,0,0,1,1.141-.172,7.345,7.345,0,0,1,1.419.639q.78.443.78,1.032l.2.246q.24,0,.54.713a7.509,7.509,0,0,1,.46,1.621,2.535,2.535,0,0,1-.08,1.45,6.207,6.207,0,0,1-.62,1.818q-.46.885-.78.886a1.75,1.75,0,0,0-.3.024c-.094.017-.141.107-.141.271s-.14.245-.42.245a2.1,2.1,0,0,1-.86-.2.942.942,0,0,1-.56-.589,3.4,3.4,0,0,1,.08-.64c.053-.261.133-.7.24-1.326a3.862,3.862,0,0,0,.041-1.843q-.2-.467-1-.074a6.473,6.473,0,0,0-1.641,1.6,9.106,9.106,0,0,0-1.14,2.532q-.5,1.622-1.1,4.52a3.852,3.852,0,0,0-.061,1.77q.18.64.3.688a2.329,2.329,0,0,0,1.221.073,2.9,2.9,0,0,0,1.1-.417,7.1,7.1,0,0,0,1.14-.86q.5-.466,1.1-1.008a1.248,1.248,0,0,0,.36-.565,1.187,1.187,0,0,1,.48-.614,1,1,0,0,1,.821-.615c.333-.015.659-.024.979-.024a1.636,1.636,0,0,1,.68.491,3.324,3.324,0,0,1,.54.762q.18.369-.06.517c-.107,0-.174.082-.2.245q.081.2-.34.884a13.631,13.631,0,0,1-1.059,1.475,16.048,16.048,0,0,1-1.221,1.352q-.581.565-.819.565c-.268,0-.4.1-.4.3q0,.1-.58.491a14.045,14.045,0,0,1-1.32.786A6.188,6.188,0,0,1,233.124,72.447Z" style="fill: none"/>
      </clipPath>
      <clipPath id="clip-path-12" transform="translate(-64.813 -32.514)">
        <path id="o" d="M245.563,71.906a1.247,1.247,0,0,1-.819-.246,10.023,10.023,0,0,1-.74-.687,8.944,8.944,0,0,1-1.22-2.114,3.842,3.842,0,0,1-.341-1.965,3.434,3.434,0,0,0,.08-1.131c-.133-.163-.173-.27-.12-.32a.741.741,0,0,0,.16-.269c.161,0,.214-.18.161-.541a4.915,4.915,0,0,1,.259-1.695,12.292,12.292,0,0,1,.941-2.483q.24-.49.72-1.3t1.06-1.622a11.182,11.182,0,0,1,1.06-1.3,15.562,15.562,0,0,1,1.86-1.671,5.337,5.337,0,0,1,1.739-.885,6.775,6.775,0,0,1,1.821-.245,1.856,1.856,0,0,1,1.54.786,2.828,2.828,0,0,1,1.3,1.327,6.729,6.729,0,0,1,.5,2.162,14.973,14.973,0,0,1-.239,3.612,15.525,15.525,0,0,1-1.96,4.94,13.379,13.379,0,0,1-1.961,2.752,16.03,16.03,0,0,1-2.119,1.818,3.689,3.689,0,0,1-1.8.835Q246.485,71.809,245.563,71.906Zm4.081-6a5.572,5.572,0,0,0,1.259-2.063q.381-1.131.821-2.655a2.708,2.708,0,0,0,.219-.983,9.268,9.268,0,0,0,.021-1.351c-.027-.442-.12-.7-.28-.762a.609.609,0,0,0-.72-.172,4.512,4.512,0,0,0-.92.664,17.511,17.511,0,0,0-2.22,2.826,10.538,10.538,0,0,0-1.421,3.907,3.243,3.243,0,0,0,.221,1.843.823.823,0,0,0,1.12.344A5.121,5.121,0,0,0,249.644,65.91Z" style="fill: none"/>
      </clipPath>
      <clipPath id="clip-path-13" transform="translate(-64.813 -32.514)">
        <path id="o2" d="M261.124,71.857a1.488,1.488,0,0,1-1.26-.123,6.226,6.226,0,0,1-.86-.811,4.1,4.1,0,0,1-1.16-1.106,5.826,5.826,0,0,1-.8-1.5,3.069,3.069,0,0,1-.239-1.228,19.773,19.773,0,0,1,.659-3.735,26.034,26.034,0,0,1,1.4-3.932,18.739,18.739,0,0,1,1.96-3.415,7.344,7.344,0,0,1,2.38-2.187,3.077,3.077,0,0,1,1.72-.295,1.389,1.389,0,0,1,1.24.933q.6,1.426-.28,1.819a.491.491,0,0,0-.28.123.384.384,0,0,0-.16.319,1.882,1.882,0,0,0,.88.025,7.926,7.926,0,0,0,1.46-.295,2.42,2.42,0,0,0,.981-.467.806.806,0,0,1,.359-.148,4.5,4.5,0,0,1,.6.1q.679.246.679.59a2.508,2.508,0,0,0,.12.614c.08.279.173.418.281.418.185.033.232.262.139.688a2.615,2.615,0,0,1-.94,1.327c-.507.393-.819.647-.94.762s-.14.352-.06.712a3.849,3.849,0,0,1-.04,2.261,11.275,11.275,0,0,1-1.2,2.752,16.2,16.2,0,0,1-1.981,2.678,14.545,14.545,0,0,1-2.36,2.114A5.327,5.327,0,0,1,261.124,71.857Zm.12-4.128a1.475,1.475,0,0,0,.561-.221c.265-.148.479-.271.639-.368.107-.131.246-.287.42-.468a1.177,1.177,0,0,1,.42-.319.192.192,0,0,0,.2-.172,6,6,0,0,1,.281-.738,13.015,13.015,0,0,1,.96-1.7A7.6,7.6,0,0,0,265.765,62a2.436,2.436,0,0,0,.04-1.45.3.3,0,0,0-.221-.246,1.627,1.627,0,0,1-.46-.246.592.592,0,0,0-.54.221q-.141.222-.58-.221l-.64-.983-.679.836a8.105,8.105,0,0,0-1.141,1.966,14.2,14.2,0,0,0-.779,2.408,15.834,15.834,0,0,0-.361,2.162,1.339,1.339,0,0,0,.2.983A1.039,1.039,0,0,0,261.244,67.729Z" style="fill: none"/>
      </clipPath>
      <clipPath id="clip-path-14" transform="translate(-64.813 -32.514)">
        <path id="l" d="M272.844,71.07a5.413,5.413,0,0,1-.88-.859,1.728,1.728,0,0,1-.481-1.106,13.254,13.254,0,0,1,.161-1.843c.106-.738.212-1.367.32-1.892q.079-.885.22-1.794a5.549,5.549,0,0,1,.54-1.7q.44-1.867.92-3.711t.839-3.809q.52-1.818.941-3.218t1.059-3.563a26.562,26.562,0,0,0,.621-2.63,9.565,9.565,0,0,1,.82-2.531c.16-.294.286-.548.38-.762s.193-.417.3-.614c.026-.13.166-.246.419-.344a2.652,2.652,0,0,1,.8-.172.593.593,0,0,1,.58.221q.12-.048.4.369a9.036,9.036,0,0,1,.54.934,1.5,1.5,0,0,1,.219.81,3.316,3.316,0,0,1-.059.541,2.1,2.1,0,0,1-.22.639,2.071,2.071,0,0,0-.3.565q-.14.369-.42,1.008c-.106.426-.2.86-.279,1.3a7.159,7.159,0,0,1-.32,1.2,10.4,10.4,0,0,1-.38,1.13,6.152,6.152,0,0,0-.3.885q-.281,1.131-.66,2.211a20.848,20.848,0,0,0-.66,2.31q-.282,1.179-.561,2.433a11.878,11.878,0,0,1-.8,2.383,4.354,4.354,0,0,0-.4,1.377l-.24,1.671q-.24.883-.42,1.646a6.039,6.039,0,0,0-.181.958,17.76,17.76,0,0,0-.34,2.138,6.538,6.538,0,0,1-.419,1.843,3.72,3.72,0,0,1-.281,1.082,2.07,2.07,0,0,1-.619.883A.7.7,0,0,1,272.844,71.07Z" style="fill: none"/>
      </clipPath>
      <clipPath id="clip-path-15" transform="translate(-64.813 -32.514)">
        <path id="symbol" d="M290.443,71.955a3.128,3.128,0,0,1-1.4.369,2.058,2.058,0,0,1-1.24-.664,2.182,2.182,0,0,1-.54-1.99,3.817,3.817,0,0,1,1.42-1.941,2.67,2.67,0,0,1,1.179-.664,2.515,2.515,0,0,1,1.141.369,2.462,2.462,0,0,1,1.2,2.286A3.234,3.234,0,0,1,290.443,71.955Zm2.12-7.617q-1.12.246-1.759-1.155t.08-4.939a10.868,10.868,0,0,0,.4-1.155,3.514,3.514,0,0,0,.16-.909q.161-.639.42-1.5t.54-1.622q.28-.762.4-1.007.159,0,.34-.344a1.471,1.471,0,0,0,.179-.688,3.248,3.248,0,0,1,.141-.885,2,2,0,0,1,.3-.688,1.136,1.136,0,0,1,.16-.541,1.114,1.114,0,0,0,.16-.491.588.588,0,0,1,.1-.344.6.6,0,0,0,.1-.344q.36-.786.941-2.334t1.16-3.268q.579-1.721.979-3.048a8.844,8.844,0,0,0,.4-1.621,3.19,3.19,0,0,1,.24-.738.368.368,0,0,1,.479-.245.781.781,0,0,1,.481-.172c.213-.016.373-.025.479-.025a2.939,2.939,0,0,1,1,.787A1.478,1.478,0,0,1,300.8,38q.039.59.04,1.18a6,6,0,0,1-.561,2.113q-.519,1.179-1.16,2.6-.4.933-.779,1.769a3.955,3.955,0,0,0-.38,1.032,1.786,1.786,0,0,1-.16.59q-.162.393-.361.983a8.852,8.852,0,0,0-.46,1.179q-.219.688-.379,1.253a3.761,3.761,0,0,0-.161.713,4.035,4.035,0,0,1-.1.393,1.185,1.185,0,0,1-.221.393c-.106,0-.173.18-.2.541a5.2,5.2,0,0,1-.181.909,13.144,13.144,0,0,1-.58,1.7q-.76,2.605-1.079,4.153a20.657,20.657,0,0,0-.4,2.629,2.861,2.861,0,0,1-.441,1.6A3.041,3.041,0,0,1,292.563,64.338Z" style="fill: none"/>
      </clipPath>
    </defs>
    <title>heroheading</title>
    <g id="t-grp" class="animate">
      <g style="clip-path: url(#clip-path)">
        <path id="t-path" d="M67.407,44.556c.371-.741,5.556-1.206,5.556-1.206s1.092-.139,2.459-.283a35.769,35.769,0,0,1,4.874-.289c1.7.148,4.445.889,3.111,1.333s-7.985-.454-7.985-.454l-1.274,4.454L68.074,69.444c-.741,2.667-.889,1.931-.667,3.151s0,1.072.593,1.368" transform="translate(-64.813 -32.514)" style="fill: none;stroke: #f29a7f;stroke-miterlimit: 10;stroke-width: 5px"/>
      </g>
    </g>
    <g id="h-grp">
      <g style="clip-path: url(#clip-path-2)">
        <path id="h-path" d="M89.861,41.556l.88.555S90,40.7,89.63,41.37s-6.815,24.963-6.815,24.963c.518,2.223,2.37.889,2.37.889s-.592.815.741-.592a36.6,36.6,0,0,0,3.333-4A28.135,28.135,0,0,1,92.148,60c1.259-.7,2.3.852,2.3.852a21.021,21.021,0,0,1,0,2.37c-.074,1.259.033,3.556.033,3.556v.841s.042,1.6.93.788.223.074,1.482-1.185A5.5,5.5,0,0,0,98.391,65" transform="translate(-64.813 -32.514)" style="fill: none;stroke: #f29a7f;stroke-miterlimit: 10;stroke-width: 8px"/>
      </g>
    </g>
    <g id="i-grp">
      <g style="clip-path: url(#clip-path-3)">
        <polyline id="i-path" points="39.651 25.819 37.261 36.782 37.261 38.337" style="fill: none;stroke: #f29a7f;stroke-miterlimit: 10;stroke-width: 6px"/>
        <path id="round-path" d="M107.1,50.505c-.712.4-1.175.471-1.452,0a1.255,1.255,0,0,1,0-1.275c.185-.471-.02-1.008.638-1.545s1.121-.873,1.584-.739.361,1.269.458,1.541S107.1,50.505,107.1,50.505Z" transform="translate(-64.813 -32.514)" style="fill: none;stroke: #f29a7f;stroke-miterlimit: 10;stroke-width: 4px"/>
      </g>
    </g>
    <g id="s-grp">
      <g style="clip-path: url(#clip-path-4)">
        <path id="s-path" d="M119.815,59.3c-.037-.111.148.76.3.2s-.926-1.5-.3-2.611,1.3-1.068.852-1.812-.556-2.966-2.482-1.966-6.333,4.926-6.481,5.445a13.131,13.131,0,0,0-.26,1.611s-.037.389.926,1.8a9.529,9.529,0,0,1,1.482,2.481c.407,1.037,1.963,3.926,1.889,4.7s-2.723,2.7-3.26,2.778-.074.518-1.259-.37-2.185-1.149-2.259-2.3a14.26,14.26,0,0,0-.246-1.933" transform="translate(-64.813 -32.514)" style="fill: none;stroke: #f29a7f;stroke-miterlimit: 10;stroke-width: 6px"/>
      </g>
    </g>
    <g id="i2-grp">
      <g style="clip-path: url(#clip-path-5)">
        <path id="i2-path" d="M135.778,57.611l-1.389,6.833s-.333.223-.278,1.667a20.905,20.905,0,0,0,.83,3.951" transform="translate(-64.813 -32.514)" style="fill: none;stroke: #f29a7f;stroke-miterlimit: 10;stroke-width: 6px"/>
        <path id="round2-path" d="M138.389,50.63a2.164,2.164,0,0,1-1.144-1.461c0-.365-.3-1.617,0-1.826s.662-.73,1.144-.626a1.322,1.322,0,0,1,1.024,1.1,2.782,2.782,0,0,1,0,2.086A1.472,1.472,0,0,1,138.389,50.63Z" transform="translate(-64.813 -32.514)" style="fill: none;stroke: #f29a7f;stroke-miterlimit: 10;stroke-width: 4px"/>
      </g>
    </g>
    <g id="s2-grp">
      <g style="clip-path: url(#clip-path-6)">
        <path id="s2-path" d="M151.926,57.37a2.6,2.6,0,0,0-.843-2.4,1.885,1.885,0,0,0-1.555-.944,6.809,6.809,0,0,0-2.778.75l-2.583,2.139-.723,1.472a9.421,9.421,0,0,0,.445,5.475l2.528,1.636a7.556,7.556,0,0,1,1.055.556c.75.444,1.195.583,1.278,1.388a3.348,3.348,0,0,1-.111,1.695c-.222,1.055-.028.805-.472,1.167s-.306.611-2.056.638-2.944.056-3.639-.638-.083.055-.889-1.389-.416-1.834-.416-1.834" transform="translate(-64.813 -32.514)" style="fill: none;stroke: #f29a7f;stroke-miterlimit: 10;stroke-width: 6px"/>
      </g>
    </g>
    <g id="v-grp">
      <g style="clip-path: url(#clip-path-7)">
        <path id="v-path" d="M165.63,56.667l1.407,9.3.667,2.745s-.741.672.444,0,.7,0,2.275-2,5.335-8.889,5.335-8.889" transform="translate(-64.813 -32.514)" style="fill: none;stroke: #f29a7f;stroke-miterlimit: 10;stroke-width: 6px"/>
      </g>
    </g>
    <g id="e-grp">
      <g style="clip-path: url(#clip-path-8)">
        <path id="e-path" d="M177.333,59.593l2.148,2.763,3.482.57s3.63-1.185,4.3-2.176.445-2.12.445-3.157-.889-1.482-2.223-2.445-1.037-.074-2.148,0-.666.371-1.748.667-2.1,3.7-2.1,3.7c-.444,7.111-.74,7.259-.074,8.444s.519,1.384,1.7,2.1.7.642,1.425.568a3.087,3.087,0,0,0,1.834-1.111c.593-.593.06,0,1.778-1.7s2-2,2.445-2.519" transform="translate(-64.813 -32.514)" style="fill: none;stroke: #f29a7f;stroke-miterlimit: 10;stroke-width: 6px"/>
      </g>
    </g>
    <g id="r-grp">
      <g style="clip-path: url(#clip-path-9)">
        <path id="r-path" d="M192.5,69.222l3.056-9.889,1.569-2.76s-1.043.594.786-.629,1.589-1.111,2.533-1,.556.056,1.445.556.555.5.778,1.167.389.889,0,1.555-1.556,2.528-1.556,2.528" transform="translate(-64.813 -32.514)" style="fill: none;stroke: #f29a7f;stroke-miterlimit: 10;stroke-width: 6px"/>
      </g>
    </g>
    <g id="y-grp">
      <g style="clip-path: url(#clip-path-10)">
        <path id="y-path" d="M206.889,55.333V60s-.778,6.573-.778,7.064-.889,2.353.778,1.644,1.444.309,2.889-1.644,4.111-6.314,4.111-6.314l1.333-2.883-5.629,18.948a7.755,7.755,0,0,1-.63,3c-.63,1.222-.556,1.148-1.185,1.444s-.623.815-1.719,0-1.948-1.3-2.281-2.518-.445-1.037-.408-2.074" transform="translate(-64.813 -32.514)" style="fill: none;stroke: #f29a7f;stroke-miterlimit: 10;stroke-width: 6px"/>
      </g>
    </g>
    <g id="c-grp">
      <g style="clip-path: url(#clip-path-11)">
        <path id="c-path" d="M237.63,60l.314-.472a7.145,7.145,0,0,0,.834-1.945,4.445,4.445,0,0,0-.389-2c-.167-.166-1.25-1.194-1.722-1.166a7.84,7.84,0,0,0-2.5.277c-.278.278-2.056,1.584-2.306,2.2s-2.139,6.444-2.139,6.444a22.537,22.537,0,0,0-.5,2.584,6.159,6.159,0,0,0,0,2.027c.222.778-.083.723.417,1.278s.333.889.722,1a7.747,7.747,0,0,0,1.639.417c.667.055.361.111,1.694-.333s.806-.084,1.612-.778.666-.139,1.666-1.2-.083.056,1.667-1.833,1.586-1.972,1.862-2.111a7.435,7.435,0,0,0,1.027-.945" transform="translate(-64.813 -32.514)" style="fill: none;stroke: #f29a7f;stroke-miterlimit: 10;stroke-width: 6px"/>
      </g>
    </g>
    <g id="o-grp">
      <g style="clip-path: url(#clip-path-12)">
        <path id="o-path" d="M244.185,65.111a16.288,16.288,0,0,1,.185-1.926c.111-.37.223-1.37.445-2.037a4.675,4.675,0,0,1,.963-1.741c.3-.222,2.37-1.74,2.37-1.74s.13-.26,1.028-.371a20.673,20.673,0,0,1,2.8-.185,1.4,1.4,0,0,1,1.353,1c.334.778.667.556.482,2.222a11.87,11.87,0,0,1-1.3,4.778c-.926,1.741-.63,2.445-2.038,3.482s-.444.666-1.814,1.185a6.062,6.062,0,0,1-2.593.7c-.63-.074-.815.26-1.407-.814s-.741-.667-.778-1.741-.3.741,0-2.222-.049-2.615.3-2.963.408-1.556.408-1.556" transform="translate(-64.813 -32.514)" style="fill: none;stroke: #f29a7f;stroke-miterlimit: 10;stroke-width: 6px"/>
      </g>
    </g>
    <g id="_02-grp" data-name="02-grp">
      <g style="clip-path: url(#clip-path-13)">
        <path id="o2-path" d="M258.082,64.641l1.26-4.814,2.325-2.457a1.936,1.936,0,0,1,1.09-.515c.667-.074.021-.374,2.206.33s2.3,1.037,2.481,1.667a11.861,11.861,0,0,1,.2,4.333c-.334.926-1.482,3.408-1.748,3.889a13.059,13.059,0,0,1-2.191,2.037,12.611,12.611,0,0,1-1.741,1.148,3.82,3.82,0,0,1-1.565.148c-.25-.111-1.287-.629-1.435-.963A6.849,6.849,0,0,1,258,66.889c-.111-1.222-.222-1.926,0-2.222a7.68,7.68,0,0,0,.444-1.778l.223-.741" transform="translate(-64.813 -32.514)" style="fill: none;stroke: #f29a7f;stroke-miterlimit: 10;stroke-width: 6px"/>
      </g>
    </g>
    <g id="l-grp">
      <g style="clip-path: url(#clip-path-14)">
        <path id="l-path" d="M282.033,41.488s-4.9,12.292-4.9,12.52-2.67,9.189-2.759,9.83-.8,4.055-.623,4.662S275,68.2,275,68.2" transform="translate(-64.813 -32.514)" style="fill: none;stroke: #f29a7f;stroke-miterlimit: 10;stroke-width: 4px"/>
      </g>
    </g>
    <g id="symbol-grp">
      <g style="clip-path: url(#clip-path-15)">
        <path id="symbol2-path" d="M288.383,69.009s0-1.194,1.079-1.26,1.956,0,2.091.63-.062,2.675-.739,2.945a4.579,4.579,0,0,1-1.622.336c-.337,0-1.214-.265-1.281-.729s-.2-.464,0-.928S288.383,69.009,288.383,69.009Z" transform="translate(-64.813 -32.514)" style="fill: none;stroke: #f29a7f;stroke-miterlimit: 10;stroke-width: 4px"/>
        <path id="symbol-path" d="M299.123,36.891l-.326-.039.528.177-.452,1.459c-.656,1.545-3.653,8.6-5.984,14.08l-1.094,3.49a3.932,3.932,0,0,0-.517,1.87,17.13,17.13,0,0,0,0,3.217c.115,2.189-.293,2.485-.463,2.485" transform="translate(-64.813 -32.514)" style="fill: none;stroke: #f29a7f;stroke-miterlimit: 10;stroke-width: 4px"/>
      </g>
    </g>
  </svg>
  