<svg xmlns="http://www.w3.org/2000/svg" xmlns:xlink="http://www.w3.org/1999/xlink" viewBox="0 0 91.13 63.684">
  <defs>
    <clipPath id="clip-path" transform="translate(-2.732 -17.913)">
      <path id="h" d="M7.6,52.723a.906.906,0,0,1-.746-.158q-.439-.261-.8-.459a4.956,4.956,0,0,1-.812-.951,2.746,2.746,0,0,1-.354-.977,11.484,11.484,0,0,1-.135-1.326q.086-.846.168-2.262t.263-3.056a10.67,10.67,0,0,1,.091-1.495q.1-.874.24-1.7c.091-.551.158-.97.2-1.254q.1-1.316.237-2.533t.374-2.816q.236-1.6.558-4.04.471-3.2.706-4.794t.348-2.292a10.38,10.38,0,0,0,.134-1.114,1.043,1.043,0,0,1,.384-.871,1.651,1.651,0,0,1,.859-.536,1.809,1.809,0,0,1,1.36.622,4.73,4.73,0,0,1,1.132,1.727,3.052,3.052,0,0,1,.044,2.146q-.409,1.939-.721,4.3t-.608,4.7q-.294,2.337-.649,4.318a5.283,5.283,0,0,1-.145.908q-.144.646-.255,1.081c-.074.289-.176.688-.3,1.194,0,.208-.007.5-.034.889s-.061.72-.106,1q0,.261-.022.679a7.387,7.387,0,0,0,0,.829,8.913,8.913,0,0,1,.5-.838q.333-.5.85-1.263c.4-.552.752-1.03,1.054-1.427a13.42,13.42,0,0,1,.926-1.094q.426-.488,1.161-1.342c.043-.11.09-.24.142-.387a.516.516,0,0,1,.205-.294,2.4,2.4,0,0,1,.267-.332c.13-.144.259-.295.386-.457a4.564,4.564,0,0,1,1.664-1.117,4.888,4.888,0,0,1,.929-.263,1.842,1.842,0,0,1,1.209.284,4.947,4.947,0,0,1,1.311,1.152,3.494,3.494,0,0,1,.827,1.44,13.187,13.187,0,0,1,.427,2.341,10.474,10.474,0,0,1,.057,1.547q-.012,1.145-.007,1.714l-.111,1.785.362-.062a2.247,2.247,0,0,1,1.458-.147,2.929,2.929,0,0,1,.489.28,1.86,1.86,0,0,0,.435.236,1.184,1.184,0,0,1,.11,1.174,2.636,2.636,0,0,1-.629,1.2A5.666,5.666,0,0,1,21.3,49.952,2.271,2.271,0,0,1,19.5,49.9a3.221,3.221,0,0,1-1.419-1.365,7.723,7.723,0,0,1-.672-2.428q-.2-2.248-.326-3.24c-.083-.661-.289-.962-.62-.906a3.107,3.107,0,0,0-1.364.832A16.8,16.8,0,0,0,13.32,44.7a30.983,30.983,0,0,0-1.858,2.552,23.235,23.235,0,0,0-1.548,2.733Q9.5,50.838,9,51.677A2.152,2.152,0,0,1,7.6,52.723Z" style="fill: none"/>
    </clipPath>
    <clipPath id="clip-path-2" transform="translate(-2.732 -17.913)">
      <path id="a-2" d="M28.386,50.031a2.116,2.116,0,0,0-.927-.672c-.451-.2-.689-.366-.712-.5a1.757,1.757,0,0,0-.311-.595,2.843,2.843,0,0,0-.491-.565q-.279-.262-.122-1.51t.583-3.085q.426-1.839.979-3.751a5.794,5.794,0,0,0,.539-1.183,5.6,5.6,0,0,1,.393-.949.63.63,0,0,1,.071-.4.4.4,0,0,1,.284-.231l.223-.869a5.37,5.37,0,0,1,.424-.9q.37-.686.919-1.534t1.136-1.623a9.815,9.815,0,0,1,.985-1.155,3.031,3.031,0,0,1,1.847-.994,2.746,2.746,0,0,1,1.857.408c.108.086.345.252.712.5s.785.522,1.255.822.88.575,1.233.827l1.953,1.376L40.884,36.1a7.664,7.664,0,0,0,.314,3.581,10.678,10.678,0,0,0,1.285,2.479,2.063,2.063,0,0,0,.755.752,2.2,2.2,0,0,0,1.084.23,1.4,1.4,0,0,1,.728.185.992.992,0,0,1,.454.752,3.089,3.089,0,0,1-.084,1.807,1.494,1.494,0,0,1-.725.773,5.487,5.487,0,0,1-2.9.135,5.384,5.384,0,0,1-2.928-2.455,7.266,7.266,0,0,1-.668-1.053,9.156,9.156,0,0,1-.524-1.026q-.138.283-.366.711c-.152.287-.3.545-.446.778A19.594,19.594,0,0,1,32.2,49.4,3.6,3.6,0,0,1,28.386,50.031Zm2.686-5.161a15.221,15.221,0,0,0,1.555-1.747q1.281-1.725,2.107-2.854a13.262,13.262,0,0,0,1.514-2.8l.679-1.985a4.768,4.768,0,0,0-1.072-1.373,1.065,1.065,0,0,0-.782-.23,2.241,2.241,0,0,0-1.253,1.073,15.693,15.693,0,0,0-1.41,2.733q-.739,1.766-1.595,4.35a19.259,19.259,0,0,0-.67,3.387A1.725,1.725,0,0,0,31.072,44.87Z" style="fill: none"/>
    </clipPath>
    <clipPath id="clip-path-3" transform="translate(-2.732 -17.913)">
      <path id="r" d="M51.008,46.14a1.231,1.231,0,0,1-.571.045,8.012,8.012,0,0,1-.9-.105,1.546,1.546,0,0,1-.561-.162,5.237,5.237,0,0,1-.622-.646,2.994,2.994,0,0,1-.585-1.379,4.226,4.226,0,0,1,.37-2.3,14.7,14.7,0,0,0,.281-1.606q.141-1.062.285-2.255c.095-.8.188-1.511.28-2.15s.161-1.084.211-1.335a2.784,2.784,0,0,0-.28-1.224.848.848,0,0,0-.862-.292A.811.811,0,0,1,47.3,32.5a2.343,2.343,0,0,1-.465-1.218,4.187,4.187,0,0,1,.125-1.294,2.426,2.426,0,0,1,.547-1,3.376,3.376,0,0,1,1.089-.551,6.411,6.411,0,0,1,1.365-.286,1.388,1.388,0,0,1,1.007.19,1.559,1.559,0,0,1,.67.793,14.435,14.435,0,0,1,.576,1.329q.258.681.362,1.027a8.613,8.613,0,0,0,.82-1.309q.437-.828.91-1.584a16.6,16.6,0,0,1,1.518-1.428,3.5,3.5,0,0,1,1.342-.83,2.262,2.262,0,0,1,1.307.321,2.788,2.788,0,0,1,1.063.779,7.144,7.144,0,0,1,.961,1.677,2.026,2.026,0,0,1-.011,1.689,6.015,6.015,0,0,1-1.041,1.5,2.4,2.4,0,0,1-1.963.726q-.288-.054-.693-.659a4.322,4.322,0,0,1-.5-.9c-.017-.1-.129.014-.336.342s-.447.726-.723,1.189-.535.889-.777,1.276a18.505,18.505,0,0,0-1.129,3.154q-.543,1.961-1.273,4.733-.324,1.356-.49,2.552T51.008,46.14Z" style="fill: none"/>
    </clipPath>
    <clipPath id="clip-path-4" transform="translate(-2.732 -17.913)">
      <path id="a" d="M67.7,43.632a3.125,3.125,0,0,1-.933.238,4.244,4.244,0,0,1-1.04.023c-.3-.035-.459-.1-.475-.2-.03-.168-.119-.239-.269-.213a8.655,8.655,0,0,0-1.579-.819,4.346,4.346,0,0,1-.8-1.55,10.567,10.567,0,0,1-.049-3.391,9.432,9.432,0,0,1,.226-3.543,20.849,20.849,0,0,1,1.334-3.838,25.332,25.332,0,0,1,1.909-3.469,13.814,13.814,0,0,1,1.911-2.38,2.353,2.353,0,0,1,1.56-1.047,3.234,3.234,0,0,1,1.948.133,3.481,3.481,0,0,1,1.165.838q.671.663,1.31,1.41a11.9,11.9,0,0,1,1.022,1.355q.229.533.416.941a5.988,5.988,0,0,1,.336,1.006,10.871,10.871,0,0,1,.222,1.831c-.046.632-.069,1.266-.067,1.907a11.581,11.581,0,0,0,.168,1.917,2.082,2.082,0,0,0,.437,1.326c.241.236.537.2.887-.1a1.291,1.291,0,0,1,1.114-.27,1.462,1.462,0,0,1,.972.664,1.894,1.894,0,0,1,.1,1.515,4.12,4.12,0,0,1-.64,1.408,5.211,5.211,0,0,1-1.137,1.207,3.063,3.063,0,0,1-1.332.619,1.542,1.542,0,0,1-1.065-.258,4.138,4.138,0,0,1-1.106-1.03,9.088,9.088,0,0,1-.962-1.548l-.47-1.112-1.336,1.942q-.465.807-.928,1.484a4.928,4.928,0,0,0-.556.952,2.009,2.009,0,0,1-.74.957Q68.655,43,67.7,43.632Zm.385-5.05A5.792,5.792,0,0,0,69.2,37.143a15.789,15.789,0,0,0,.831-1.778q.389-.975.846-2.092a16.66,16.66,0,0,0,.783-2.056,7.17,7.17,0,0,0,.26-1.6,9.057,9.057,0,0,0-.7-1.1c-.284-.384-.532-.574-.748-.572a2.455,2.455,0,0,0-1.363,1.116,14.581,14.581,0,0,0-1.491,2.8,6.289,6.289,0,0,0-.311.883q-.175.6-.341,1.124c-.11.348-.187.577-.229.688a5.026,5.026,0,0,0-.223,1c-.082.516-.141,1.03-.176,1.537a5.22,5.22,0,0,0,0,1.064,3.477,3.477,0,0,0,.181.645.555.555,0,0,0,.506.379Q67.4,39.218,68.082,38.582Z" style="fill: none"/>
    </clipPath>
    <clipPath id="clip-path-5" transform="translate(-2.732 -17.913)">
      <path id="p" d="M84.432,46.726a5.527,5.527,0,0,1-1.152-.283,10.094,10.094,0,0,1-1.5-.616c-.463-.236-.721-.428-.778-.578a8.088,8.088,0,0,1-.226-1.235Q80.639,43,80.5,41.538t-.215-2.994a26.37,26.37,0,0,1,0-2.747q.015-.21.116-1.417a20.688,20.688,0,0,0,0-2.872q-.02-1.068.085-2.461t.24-2.817q.139-1.425.165-2.506t.132-2.207c.072-.749.1-1.179.095-1.287a.773.773,0,0,1,.354-.537,9.022,9.022,0,0,1,.738-.546c.258-.172.427-.284.5-.334a1.358,1.358,0,0,1,2.021,1.04,4.6,4.6,0,0,1,.015,1.379l-.023.833,1.459-.758q.393-.114,1.106-.282L88.7,20.7a5.282,5.282,0,0,1,.98-.163,3.034,3.034,0,0,1,1.591-.094,3.287,3.287,0,0,1,1.017.57c.194.082.431.2.715.348a1.4,1.4,0,0,1,.584.512,2.779,2.779,0,0,1,.454,1.518,8,8,0,0,1-.174,1.972,8.7,8.7,0,0,1-.659,1.969,6.121,6.121,0,0,1-.959,1.5,10.141,10.141,0,0,0-.953.816q.025.2-.655.894a14.217,14.217,0,0,1-1.648,1.412,9.6,9.6,0,0,1-1.8,1.083c-.2.084-.476.2-.846.33a1.858,1.858,0,0,1-.915.144,5.622,5.622,0,0,0-.684.117c-.117.035-.156.1-.118.2q-.015.087-.16,1.368a20.416,20.416,0,0,0-.008,3.43q-.01,2.4-.007,3.945t.018,2.412c.009.577.014.994.016,1.255A1.218,1.218,0,0,1,84.432,46.726Zm0-16.481q.216.186.967-.137a8.86,8.86,0,0,0,1.628-.953,9.3,9.3,0,0,0,1.51-1.329,1.687,1.687,0,0,0,.565-1.26q.609-1.21.839-1.753t-.3-.675a1.762,1.762,0,0,0-1.588-.155,8.275,8.275,0,0,0-2.465,1.754,4.288,4.288,0,0,0-.856.684,1.071,1.071,0,0,0-.225.623q-.027.381-.137,1.238a10.76,10.76,0,0,0-.058,1.38A1.213,1.213,0,0,0,84.434,30.245Z" style="fill: none"/>
    </clipPath>
    <clipPath id="clip-path-6" transform="translate(-2.732 -17.913)">
      <path id="d-1" d="M12.471,69.376a1.065,1.065,0,0,1-.743-.02A1.363,1.363,0,0,1,11.16,69a2.2,2.2,0,0,1-.32-.62c-.063-.2-.127-.439-.191-.707l-.15-.727-1.024.988a7.4,7.4,0,0,1-1.63,1.276,4.7,4.7,0,0,1-1.461.541,2.056,2.056,0,0,1-.8-.186,4.942,4.942,0,0,1-.89-.469,3.515,3.515,0,0,1-.586-.466,1.377,1.377,0,0,1-.238-.821,4.766,4.766,0,0,1,.142-1.238,7.737,7.737,0,0,1,.466-1.38,4.964,4.964,0,0,1,.767-1.231,4.054,4.054,0,0,1,2.09-1.729A4.247,4.247,0,0,1,9.82,62a1.561,1.561,0,0,0,.759.027.34.34,0,0,0,.235-.325,5.89,5.89,0,0,1,.148-.687q.09-.323.244-.968a28.362,28.362,0,0,1,.8-2.761q.368-1.01.677-1.767a2.129,2.129,0,0,1,.506-.791.91.91,0,0,1,.507-.262,2.43,2.43,0,0,1,.8.042,1.026,1.026,0,0,1,.685.372.721.721,0,0,1,.168.391.9.9,0,0,1-.109.483q-.28.575-.633,1.506t-.678,2.023q-.327,1.092-.585,2.15t-.415,1.858a6.1,6.1,0,0,0-.067,1.248q.021.747.107,1.514t.211,1.357a3.691,3.691,0,0,0,.212.747.646.646,0,0,1,.107.644.853.853,0,0,1-.43.371A4.009,4.009,0,0,1,12.471,69.376Zm-5.09-1.823a3.955,3.955,0,0,0,.662-.376q.287-.2.67-.509A6.97,6.97,0,0,0,9.8,65.605a2.674,2.674,0,0,0,.457-1,.629.629,0,0,0-.079-.562,1.4,1.4,0,0,0-.513-.377,1.313,1.313,0,0,0-.817-.03,2.342,2.342,0,0,0-1.024.646,5.29,5.29,0,0,0-.974,1.287,5.159,5.159,0,0,0-.493,1.916c-.014.148.069.238.247.267A1.474,1.474,0,0,0,7.381,67.553Z" style="fill: none"/>
    </clipPath>
    <clipPath id="clip-path-7" transform="translate(-2.732 -17.913)">
      <path id="a-4" d="M16.617,67.8a1.171,1.171,0,0,0-.551-.261c-.273-.072-.415-.137-.424-.194a.592.592,0,0,0-.172-.248,1.286,1.286,0,0,0-.285-.229c-.108-.07-.115-.285-.021-.647a11.281,11.281,0,0,1,.471-1.349q.33-.8.741-1.645a2.753,2.753,0,0,0,.377-.527,2.433,2.433,0,0,1,.277-.421.222.222,0,0,1,.058-.175A.3.3,0,0,1,17.273,62l.169-.382a2.719,2.719,0,0,1,.295-.4c.169-.2.378-.434.625-.688s.5-.5.762-.735a6.357,6.357,0,0,1,.652-.527,2.525,2.525,0,0,1,1.181-.484,2.208,2.208,0,0,1,1.136.119c.064.034.2.1.425.194s.468.2.748.316.526.224.735.32l1.163.535-.3,1.153a2.286,2.286,0,0,0,.066,1.535,3.685,3.685,0,0,0,.709,1.029.976.976,0,0,0,.442.3,1.745,1.745,0,0,0,.664.066,1.113,1.113,0,0,1,.444.058.367.367,0,0,1,.255.311.987.987,0,0,1-.116.78,1,1,0,0,1-.477.357,4.965,4.965,0,0,1-1.8.144,3.73,3.73,0,0,1-2.1-1.4,3.143,3.143,0,0,1-.289-.426q-.094.126-.252.318t-.3.348A12.362,12.362,0,0,1,19,67.415,3.172,3.172,0,0,1,16.617,67.8ZM18.465,65.5a10.121,10.121,0,0,0,1.028-.8c.57-.523,1.04-.953,1.408-1.295a6.607,6.607,0,0,0,1.038-1.255l.492-.877a1.981,1.981,0,0,0-.615-.558.819.819,0,0,0-.477-.076,1.636,1.636,0,0,0-.816.5,7.741,7.741,0,0,0-.971,1.222q-.522.78-1.144,1.923a6.873,6.873,0,0,0-.536,1.479A1.426,1.426,0,0,0,18.465,65.5Z" style="fill: none"/>
    </clipPath>
    <clipPath id="clip-path-8" transform="translate(-2.732 -17.913)">
      <path id="t" d="M32.291,65.784a3.085,3.085,0,0,1-.84-.168c-.288-.1-.587-.22-.9-.358a2.608,2.608,0,0,1-.585-.554,1.745,1.745,0,0,1-.27-.662q-.081-.393-.184-1.018a3.07,3.07,0,0,1,0-.751c.032-.329.072-.673.118-1.035s.094-.681.144-.962a5.451,5.451,0,0,0,.081-.555q.039-.292-.335-.274a5.875,5.875,0,0,0-.81.1,1.585,1.585,0,0,1-.588.045c-.078,0-.139-.14-.184-.411-.01-.057-.054-.091-.133-.1a.4.4,0,0,1-.221-.106c-.047-.051-.018-.166.087-.346a.8.8,0,0,1,.463-.365c.164-.056.414-.123.748-.2a6.378,6.378,0,0,0,1.006-.322,1.769,1.769,0,0,0,.741-.508q.176-.516.395-1.114t.431-1.067a4.078,4.078,0,0,1,.307-.592,2.27,2.27,0,0,1,.961-.325,1.078,1.078,0,0,1,.854.244,1.39,1.39,0,0,0,.275.174.194.194,0,0,1,.117.18,1.451,1.451,0,0,1-.149.5q-.156.369-.522,1.135c-.07.159-.162.359-.276.6a1.854,1.854,0,0,0,.342-.033c.15-.025.337-.065.561-.117.2-.062.423-.125.665-.187a2.746,2.746,0,0,1,.65-.1,1.422,1.422,0,0,1,1.006.118,1.027,1.027,0,0,1,.457.653q.1.227-.158.446a2.228,2.228,0,0,1-1.015.345c-.169.029-.414.077-.73.144l-.981.208q-.5.105-.852.2c-.231.06-.345.1-.34.134a1.064,1.064,0,0,0-.212.377,5.528,5.528,0,0,0-.251.759c-.078.293-.142.568-.2.827a10.28,10.28,0,0,0-.046,1.464,4.636,4.636,0,0,0,.185,1.194,1.121,1.121,0,0,0,.444.666.8.8,0,0,0,.775-.14,6.187,6.187,0,0,0,.893-.644,1.061,1.061,0,0,1,.841-.351.671.671,0,0,1,.544.4.831.831,0,0,1-.141.808,2.653,2.653,0,0,1-.845.845,5.477,5.477,0,0,1-1.2.61A2.92,2.92,0,0,1,32.291,65.784Z" style="fill: none"/>
    </clipPath>
    <clipPath id="clip-path-9" transform="translate(-2.732 -17.913)">
      <path id="a-3" d="M40.4,63.99a2.807,2.807,0,0,1-.587.131,3.864,3.864,0,0,1-.646.042c-.184-.007-.28-.032-.287-.074-.012-.071-.065-.1-.159-.084a5.79,5.79,0,0,0-.95-.3,1.469,1.469,0,0,1-.441-.643,3.182,3.182,0,0,1,.09-1.461,3.013,3.013,0,0,1,.266-1.535,8.6,8.6,0,0,1,.965-1.7,12.927,12.927,0,0,1,1.307-1.554,8.6,8.6,0,0,1,1.269-1.083,1.833,1.833,0,0,1,1.006-.5,2.814,2.814,0,0,1,1.2,0,2.059,2.059,0,0,1,.693.327c.262.177.515.366.762.569a4.736,4.736,0,0,1,.585.552c.083.149.158.281.225.394a1.814,1.814,0,0,1,.172.424,3.14,3.14,0,0,1,.073.783,7.436,7.436,0,0,0-.109.824,3.377,3.377,0,0,0,.035.822.65.65,0,0,0,.224.558c.141.1.326.071.554-.07a1.145,1.145,0,0,1,.7-.15.85.85,0,0,1,.579.256c.131.147.134.364.007.651a1.882,1.882,0,0,1-.447.626,3.366,3.366,0,0,1-.748.555,2.6,2.6,0,0,1-.848.306,1.227,1.227,0,0,1-.651-.078,2.048,2.048,0,0,1-.649-.411,3.3,3.3,0,0,1-.542-.637l-.251-.467-.9.879q-.317.361-.628.668a2.481,2.481,0,0,0-.379.426,1.192,1.192,0,0,1-.493.435C41.149,63.615,40.814,63.789,40.4,63.99Zm.418-2.188a3.5,3.5,0,0,0,.747-.655,7.389,7.389,0,0,0,.579-.792q.276-.432.6-.928a7.355,7.355,0,0,0,.559-.91,2.439,2.439,0,0,0,.217-.7,3.265,3.265,0,0,0-.394-.453.625.625,0,0,0-.444-.224,1.83,1.83,0,0,0-.884.523,7.213,7.213,0,0,0-1.024,1.253,2.49,2.49,0,0,0-.225.39c-.087.176-.17.341-.251.494s-.136.255-.167.3a1.881,1.881,0,0,0-.173.437,5.808,5.808,0,0,0-.165.668,1.556,1.556,0,0,0-.039.459.992.992,0,0,0,.089.272.305.305,0,0,0,.3.149A1.375,1.375,0,0,0,40.821,61.8Z" style="fill: none"/>
    </clipPath>
    <clipPath id="clip-path-10" transform="translate(-2.732 -17.913)">
      <path id="n" d="M50.857,61.806a2.25,2.25,0,0,1-.562-.071,2.711,2.711,0,0,1-.578-.159.788.788,0,0,1-.317-.334,3.744,3.744,0,0,1-.19-.794,4.142,4.142,0,0,1,.107-1.62,20.346,20.346,0,0,1,.853-2.536l.86-1.976c.077-.117.147-.22.21-.311a2.168,2.168,0,0,1,.216-.268l.155-.026a.446.446,0,0,1,.158,0,3.357,3.357,0,0,1,.844.1.994.994,0,0,1,.771.533,2.341,2.341,0,0,1,0,.674,2.881,2.881,0,0,1-.514,1.089,2.435,2.435,0,0,0-.334.7c-.095.3-.18.575-.252.836-.014.031-.054.109-.122.23s-.128.242-.186.363a.6.6,0,0,0-.078.222l-.081.212,1.063-1.1a12.677,12.677,0,0,1,1.916-1.732,2.954,2.954,0,0,1,1.424-.591,1.392,1.392,0,0,1,1.063.374,1.373,1.373,0,0,1,.36.415,2.4,2.4,0,0,1,.207.551,4.285,4.285,0,0,1,.108.821l.2,1.225q.517-.2.789-.32c.179-.081.36-.16.541-.234l.45-.163a5.025,5.025,0,0,1,.6-.166,1.617,1.617,0,0,1-.2.739,5.891,5.891,0,0,1-.556.932,4.635,4.635,0,0,1-.759.833,1.705,1.705,0,0,1-.815.421,2.45,2.45,0,0,1-.876-.039,1.729,1.729,0,0,1-.939-.584c-.106-.173-.218-.376-.333-.607a2.6,2.6,0,0,1-.242-.754l-.158-.945a.811.811,0,0,0-.044-.18c-.016-.035-.033-.049-.051-.046a2.575,2.575,0,0,0-.646.57q-.531.552-1.069,1.15a18.918,18.918,0,0,1-1.905,1.885A3.17,3.17,0,0,1,50.857,61.806Z" style="fill: none"/>
    </clipPath>
    <clipPath id="clip-path-11" transform="translate(-2.732 -17.913)">
      <path id="g" d="M66.4,64.38a2.624,2.624,0,0,1-1.664.2,3.787,3.787,0,0,1-1.644-.73,5.524,5.524,0,0,1-.416-.406,8.532,8.532,0,0,1-.557-.647,4.723,4.723,0,0,1-.422-.613c-.1-.175-.119-.283-.068-.32a.589.589,0,0,1,.462-.364,2.719,2.719,0,0,1,.795-.1c.272.007.434.049.486.129.073.091.147.186.221.283a1.5,1.5,0,0,0,.262.267c.1.077.194.146.281.206a1.715,1.715,0,0,0,.762.392.7.7,0,0,0,.569-.062,2.109,2.109,0,0,0,.611-.775,10.115,10.115,0,0,0,.414-1.427c.119-.565.221-1.052.308-1.464a11.007,11.007,0,0,1,.3-1.152,1.7,1.7,0,0,1,.137-.477,1.216,1.216,0,0,1,.2-.308l.17-.029a7.424,7.424,0,0,0-.944.776,4.372,4.372,0,0,1-1.067.729,1.559,1.559,0,0,1-.8.322,4.572,4.572,0,0,1-1.3.1,3.093,3.093,0,0,1-.694-.249,1.733,1.733,0,0,1-.465-.352q-.2-.211-.418-.505a1.555,1.555,0,0,1-.232-1.043,5.7,5.7,0,0,1,.265-1.545,6.532,6.532,0,0,1,.794-1.324,10.976,10.976,0,0,1,1.2-1.358,3.925,3.925,0,0,1,1.221-.855,5.825,5.825,0,0,1,.755-.335,2.617,2.617,0,0,1,1.071-.191,2.321,2.321,0,0,1,.761.04,7.828,7.828,0,0,1,.9.346q.414.219,1.024.569a2.556,2.556,0,0,1,.8.628.84.84,0,0,1,.2.684,1.56,1.56,0,0,1-.286.722c-.138.213-.286.43-.443.647a1.738,1.738,0,0,0-.294.844,6.717,6.717,0,0,1-.3,1.539,11.893,11.893,0,0,0-.372,1.6l-.23,1.406a7.579,7.579,0,0,1-1.11,2.911A5.155,5.155,0,0,1,66.4,64.38Zm-1.824-7.29a6.921,6.921,0,0,0,.956-.258,1.9,1.9,0,0,0,.72-.474,5.416,5.416,0,0,0,.708-.967,3.8,3.8,0,0,0,.52-1.058,1.847,1.847,0,0,0-.02-.99.5.5,0,0,0-.329-.408,1.091,1.091,0,0,0-.6.034,2.314,2.314,0,0,0-.905.493,6.176,6.176,0,0,0-.849.991A3.745,3.745,0,0,0,64.24,55.6a2.185,2.185,0,0,0-.069,1.071C64.242,56.926,64.376,57.065,64.575,57.09Z" style="fill: none"/>
    </clipPath>
    <clipPath id="clip-path-12" transform="translate(-2.732 -17.913)">
      <path id="_0" data-name="0" d="M72.909,58.422a3.835,3.835,0,0,1-.965.3,2.029,2.029,0,0,1-.92-.124q-.637-.333-.527-.806a2.1,2.1,0,0,1,.858-1.037,2.632,2.632,0,0,1,.787-.407,2.684,2.684,0,0,1,.832.026c.69.2,1.028.481,1.013.859S73.613,58.01,72.909,58.422Z" style="fill: none"/>
    </clipPath>
    <clipPath id="clip-path-13" transform="translate(-2.732 -17.913)">
      <path id="i" d="M75.1,57.992a.963.963,0,0,1-.448-.425,1.865,1.865,0,0,1-.239-.646,1.112,1.112,0,0,1,.011-.532.459.459,0,0,1,0-.281.205.205,0,0,0,0-.191.523.523,0,0,1-.021-.309c.021-.154.041-.3.065-.442.072-.258.144-.589.219-.99s.148-.81.219-1.225.126-.774.167-1.075.063-.486.067-.546c-.043-.169.081-.3.374-.387a1.1,1.1,0,0,1,.857.005,3.124,3.124,0,0,1,.91.442.426.426,0,0,1,.28.4,2.888,2.888,0,0,1-.16.873,3.32,3.32,0,0,0-.12.627,4.439,4.439,0,0,0-.044.7,4.825,4.825,0,0,0-.142.541c-.049.23-.088.445-.115.647a1.647,1.647,0,0,0-.011.419c.011.2.015.4.01.616a1.308,1.308,0,0,1-.1.521,1.31,1.31,0,0,1-.613,1.236A1.219,1.219,0,0,1,75.1,57.992Zm.829-9.224a1.233,1.233,0,0,1-.562-.294.986.986,0,0,1-.276-.39c-.043-.124-.048-.2-.019-.242a2.179,2.179,0,0,0,.329-.737,5.077,5.077,0,0,1,.279-.813c.026-.05.062-.123.107-.218a.378.378,0,0,1,.173-.19,1.288,1.288,0,0,1,.934-.217,1.884,1.884,0,0,1,1.008.3,1.1,1.1,0,0,1,.362.784,1.9,1.9,0,0,1-.369,1.038,1.986,1.986,0,0,1-.915.808A1.6,1.6,0,0,1,75.927,48.768Z" style="fill: none"/>
    </clipPath>
    <clipPath id="clip-path-14" transform="translate(-2.732 -17.913)">
      <path id="d" d="M86.954,58.054a1.062,1.062,0,0,1-.742-.02,1.346,1.346,0,0,1-.568-.358,2.173,2.173,0,0,1-.32-.62c-.064-.2-.127-.439-.191-.707l-.15-.726-1.025.988a7.4,7.4,0,0,1-1.629,1.275,4.674,4.674,0,0,1-1.461.541,2.056,2.056,0,0,1-.8-.186,4.942,4.942,0,0,1-.89-.469,3.515,3.515,0,0,1-.586-.466,1.377,1.377,0,0,1-.239-.821,4.771,4.771,0,0,1,.143-1.238,7.623,7.623,0,0,1,.466-1.379,4.978,4.978,0,0,1,.766-1.232,4.053,4.053,0,0,1,2.091-1.728,4.23,4.23,0,0,1,2.485-.226,1.561,1.561,0,0,0,.759.027.34.34,0,0,0,.235-.325,5.893,5.893,0,0,1,.147-.687q.092-.324.245-.969a28.329,28.329,0,0,1,.8-2.76q.367-1.01.677-1.767a2.167,2.167,0,0,1,.505-.792.912.912,0,0,1,.509-.261,2.4,2.4,0,0,1,.8.042,1.032,1.032,0,0,1,.686.372.724.724,0,0,1,.167.391.9.9,0,0,1-.109.482c-.188.384-.4.887-.634,1.507s-.461,1.294-.677,2.023-.412,1.444-.584,2.15-.312,1.324-.417,1.857a6.189,6.189,0,0,0-.066,1.248q.021.747.108,1.514a13.475,13.475,0,0,0,.21,1.357,3.691,3.691,0,0,0,.212.747.652.652,0,0,1,.107.645.854.854,0,0,1-.431.37A3.865,3.865,0,0,1,86.954,58.054ZM81.865,56.23a3.885,3.885,0,0,0,.662-.375c.191-.134.414-.3.67-.509a6.968,6.968,0,0,0,1.084-1.064,2.662,2.662,0,0,0,.457-1,.632.632,0,0,0-.079-.562,1.385,1.385,0,0,0-.514-.376,1.309,1.309,0,0,0-.816-.03,2.324,2.324,0,0,0-1.024.645,5.29,5.29,0,0,0-.974,1.287,5.146,5.146,0,0,0-.493,1.916c-.014.148.068.239.247.267A1.468,1.468,0,0,0,81.865,56.23Z" style="fill: none"/>
    </clipPath>
  </defs>
  <title>new-logo-animated</title>
  <g id="line">
    <g id="line-solid">
      <path d="M5.086,81.539A362.873,362.873,0,0,1,71.248,68.282q9.526-.995,19.1-1.489c1.6-.084,1.61-2.584,0-2.5A367.3,367.3,0,0,0,23.1,74.074q-9.4,2.277-18.675,5.054a1.251,1.251,0,0,0,.664,2.411Z" transform="translate(-2.732 -17.913)" style="fill: #231f20"/>
    </g>
  </g>
  <g id="logo1">
    <g id="h-grp">
      <g style="clip-path: url(#clip-path)">
        <path id="h-path" d="M9.9,24.634l.67-1.185.42-1.111-.42-.963s-.617-.667-.67,1.037L9.7,24.243,7.4,46.049s-.556,2.807,0,3.252,3.172-4.026,3.172-4.026l3.494-4.307,2.556-3s.021-.632.667-.334c.435.2.973,2.2,1.41,4.2l.024.109c.45,2.071.788,4.107.788,4.107s.222,2.741.444,2.608,3.167-2.134,3.167-2.134c-.093-.518.167-.3-.093-.518s-.481.089-.74.044-.519.363-.519.363c-.617.884-.246.736-.839,1.069" transform="translate(-2.732 -17.913)" style="fill: none;stroke: #231f20;stroke-miterlimit: 10;stroke-width: 4px"/>
      </g>
    </g>
    <g id="a-2-grp">
      <g style="clip-path: url(#clip-path-2)">
        <path d="M39.776,34.138l-4.722-3.222s.055-.223-.556,0-.778-.223-1.278.833-3.166,6.222-3.166,6.222-1.344,3.837-1.445,4.389l-.475,2.611s-.309.119,0,1.726,2.747.678,3.281.3c2.918-.943,7.018-8.1,7-8.417.2-.348,1.111-2.352,1.111-2.352s.25-.259.25-1.176.167-.861.167-.861a7.71,7.71,0,0,1,0,2.2c-.11,2.029.98,6.222,1.527,6.75s1.991,1.821,2.445,1.555S45.47,45,45.47,45c-.276.945.141.973-.553,1a12.731,12.731,0,0,1-1.389.056,5.017,5.017,0,0,1-2.667-.862,22.294,22.294,0,0,1-2.611-2.361" transform="translate(-2.732 -17.913)" style="fill: none;stroke: #231f20;stroke-miterlimit: 10;stroke-width: 5px"/>
      </g>
    </g>
    <g id="r-grp">
      <g style="clip-path: url(#clip-path-3)">
        <path d="M54.889,32.074a4.8,4.8,0,0,1,.8-1.167c.463-.574,0,0,.621-.129.49-.1,0,0,.583.333,0,0,.148.3.185.352a8.31,8.31,0,0,0,1.185.185c.167.019.389-.407.722-.87s.112-.908,0-1.556-.333-.481-.925-.907a1.152,1.152,0,0,0-1.037-.3,8.644,8.644,0,0,0-1.334.2c-.333.074-1.5,2.2-1.5,2.2S50.056,44.741,50,44.889s-.37.111-.574,0-.2-.111-.259-.2a1.368,1.368,0,0,1-.074-.852c.074-.481.238-1.426.238-1.426l1.428-9.037s.2-1.37.2-1.463a2.069,2.069,0,0,0-.259-.981.964.964,0,0,0-.556-.352H48.833l-.8.13s-.389.2-.333.537.333.24.333.24c.407.3.212-.223.407.3.167.444-.2.371.167.444.741.148.574-.018.87.278s.3.019.3.3.055.837.055.837" transform="translate(-2.732 -17.913)" style="fill: none;stroke: #231f20;stroke-miterlimit: 10;stroke-width: 4px"/>
        <path d="M57.944,30.5" transform="translate(-2.732 -17.913)" style="fill: none;stroke: #231f20;stroke-miterlimit: 10;stroke-width: 4px"/>
      </g>
    </g>
    <g id="a-grp">
      <g style="clip-path: url(#clip-path-4)">
        <path d="M69.118,26.325A11.311,11.311,0,0,0,66.7,28.852a36.5,36.5,0,0,0-2,5.852c-.074.815-.519,3.547,0,4.477s.334,1.6,1.13,1.745a3.64,3.64,0,0,0,2.351,0,23.416,23.416,0,0,0,2.485-2.667,10.271,10.271,0,0,0,1.253-2.37,12.655,12.655,0,0,0,1-3.207c.593-2.5,1.333-2.793.518-4.052s-1.481-2.314-2.407-2.3-1.518,0-1.518,0L73.3,29.486s1.882,3.6,1.756,4.147a15.269,15.269,0,0,0-.348,3.441,1.7,1.7,0,0,0,.815.963c.444.3.666.889,1.555.148s1.277-1.111,1.277-1.111c-.573-.148-.209-.416-.573-.148-.7.518-1.222.7-1.408.481" transform="translate(-2.732 -17.913)" style="fill: none;stroke: #231f20;stroke-miterlimit: 10;stroke-width: 4px"/>
      </g>
    </g>
    <g id="p-grp">
      <g style="clip-path: url(#clip-path-5)">
        <path d="M83.519,33.633l.111,1.552-.111,1.334L83.63,38.7l.111,2.926v3.314l.278.186.078.148.107.241v.24L84.1,46l-.153.185-.185.111-.259.056-.2-.019-.352-.2a1.668,1.668,0,0,1-.537-.711l-.37-2.289a21.068,21.068,0,0,0-.222-3.218c-.222-.94,0-2.245,0-5.505V32.682l.64-7.015v.658a11.288,11.288,0,0,1,.347,2.6,6.217,6.217,0,0,0,1.013,2.667h1.407l1.922-.741s3.412-2.3,4.226-2.908.371-2.425.371-3.314a2.265,2.265,0,0,0-.889-1.741c-.371-.333-1.926-.333-2.815-.333a2.776,2.776,0,0,0-1.407.333A28.826,28.826,0,0,0,84.1,24.63a2.391,2.391,0,0,1-1.455.592c-.285,0-.161-.963-.161-.963l.321-3.7c.087-.593.457-.482.087-.593s-.593-.037-.593.222v1c-.074,3-.148,5.14-.148,5.14" transform="translate(-2.732 -17.913)" style="fill: none;stroke: #231f20;stroke-miterlimit: 10;stroke-width: 4px"/>
      </g>
    </g>
  </g>
  <g id="logo2">
    <g id="d-grp">
      <g style="clip-path: url(#clip-path-6)">
        <path d="M12.694,67.556l.223.2.111.327L13,68.361l-.333.083L12.3,68.3a1.647,1.647,0,0,1-.444-.54,3.174,3.174,0,0,1-.259-.83l.074-1.383V63.584l-.556,1.527L10.556,66l-.63.7-.852.7s-1.3.963-1.741,1.3-1.185.037-1.555,0-.3-.111-.63-.334a.9.9,0,0,1-.394-.472,9.99,9.99,0,0,1,0-1.268,1.951,1.951,0,0,1,.357-.843s1.556-2.046,1.778-2.2a18.623,18.623,0,0,1,2.3-.843,3.829,3.829,0,0,1,2.074.451c1.074.414.3.134.3.134l.185-.622.889-3.088L13.852,55.7l.12-.482s.1-.3.286-.166.214.555.214.555l-.214.25a12.951,12.951,0,0,0-.48,1.287" transform="translate(-2.732 -17.913)" style="fill: none;stroke: #231f20;stroke-miterlimit: 10;stroke-width: 4px"/>
      </g>
    </g>
    <g id="a4-grp">
      <g style="clip-path: url(#clip-path-7)">
        <path d="M20.852,59.956s-1.3.674-1.519.859-1.259,1.276-1.259,1.276l-1.111,2.073-.556,1.379v.864l.26.223s-.408.148.222.222a4.324,4.324,0,0,0,1.741-.482l.814-.37,3.371-3.333s0,.052.37-.567a2.36,2.36,0,0,0,.371-1.1v-.376l-.926-.668H21.284l.531.229,1.333.963.408.661.206.282v.576a2.491,2.491,0,0,0,.2.525c.148.289.593.972.593.972l.555.392.37.185.778.3h.63" transform="translate(-2.732 -17.913)" style="fill: none;stroke: #231f20;stroke-miterlimit: 10;stroke-width: 4px"/>
      </g>
    </g>
    <g id="t-grp">
      <g style="clip-path: url(#clip-path-8)">
        <path d="M35.347,63.03a6.6,6.6,0,0,1-.64.657,15.249,15.249,0,0,1-1.171,1.054,1.544,1.544,0,0,1-1.092,0,3.618,3.618,0,0,1-1.037-.185,2.326,2.326,0,0,1-.518-.392c-.222-.169-.259-.794-.333-1.423a4.346,4.346,0,0,1,.111-1.556c.111-.592.222-1.229.222-1.229l.889-2.2h.506l1.531-.2s.852-.223,1.074-.26a3.5,3.5,0,0,1,.79.074l-1.272.386-2,.281-.926.3a13.944,13.944,0,0,1-1.555.421,2.083,2.083,0,0,0-.63.209l-.407-.209,2.518-.68.334-1.111.666-2.037c.287-.482.315-.4.4-.315s.083.553.083.553l-.167.28-.166.223c-.626.717-.889.666-1,.963S31,57.756,31,57.756" transform="translate(-2.732 -17.913)" style="fill: none;stroke: #231f20;stroke-miterlimit: 10;stroke-width: 4px"/>
      </g>
    </g>
    <g id="a3-grp">
      <g style="clip-path: url(#clip-path-9)">
        <path d="M41.636,56.407s-1.932,2.137-2.08,2.347-1.186,1.87-1.186,1.87a3.968,3.968,0,0,0-.148,1.185c.074.339-.185.9.334,1.043s.611.42,1.194.34a3.853,3.853,0,0,0,1.546-.673c.371-.26,1.148-1,1.148-1l1.078-1.371.515-.926s.222-.741.3-1.037a5.755,5.755,0,0,0,.186-1.3c-.038-.222.222-.333-.223-.482s-1.481-.629-1.963-.37-.037.519-.037.519l1.519.814.745,1a15.282,15.282,0,0,1,.4,1.586,13.748,13.748,0,0,1,.185,1.377c-.033.859.559.85.852.758.265-.083.326.382,1.2-.591.43-.478.476-.475.166-.5l.179-.376c.062-.143.179-.217,0-.217a.723.723,0,0,0-.382.186l-.056.222c-.222.2-.148.185-.37.278a1.7,1.7,0,0,0-.463.351c-.125.309-.13.241-.167.445" transform="translate(-2.732 -17.913)" style="fill: none;stroke: #231f20;stroke-miterlimit: 10;stroke-width: 4px"/>
      </g>
    </g>
    <g id="n-grp">
      <g style="clip-path: url(#clip-path-10)">
        <path d="M60.265,57.808l.025.1.012.045.017.072s-.12.111-.166.152a3.47,3.47,0,0,1-.3.248h-.259a2.991,2.991,0,0,1-.815,1.188c-.63.579-1-.1-1.371-.246s-.148-.185-.333-.631a10.462,10.462,0,0,1-.185-1.85c-.074-.445,0,0-.185-.259s-.223-.186-.815-.3L55.3,56.7l-.443.386-.927.666-.667.983s-.889.965-1.185,1.217-.852.859-1.259.933-.259-.037-.445-.408-.185-.37,0-1.555.445-1.391.445-1.391L51.852,55c.148-.345.245-.4.245-.4s.125-.041.153.042a1.28,1.28,0,0,1,0,.333l-.139.192-.055.2c-.445,1.213-.889,2.4-.889,2.4l-.593.874" transform="translate(-2.732 -17.913)" style="fill: none;stroke: #231f20;stroke-miterlimit: 10;stroke-width: 4px"/>
      </g>
    </g>
    <g id="g-grp">
      <g style="clip-path: url(#clip-path-11)">
        <path d="M68.944,52.907a.8.8,0,0,0-.75-.645,8.107,8.107,0,0,0-2.058-.179c-.275.139-.442.06-.858.391S64,53.7,64,53.7l-.833,1.492a1.507,1.507,0,0,0-.334.973,2.562,2.562,0,0,0,.5,1.368,5.524,5.524,0,0,0,.8.221,5.746,5.746,0,0,1,1.175-.221,19.142,19.142,0,0,0,2.231-1.479l.38-.445L68.306,55l.5-.915.388-.694-.75,3.917-.555,2.444s-.565,2.741-.7,2.935-.153.5-.57.8S66,64,65.583,64c-.026,0-.04.132-.046.093-.025-.17-2.4-1.129-2.352-1.741.021-.295-.353-.543-.353-.543-.083-.406.239-.04.019.087a.448.448,0,0,0-.221.456l.129.2.278.37.2.167.3.074.315.055h.426l.3-.055s0-.028.167-.028h1.386l.142.055" transform="translate(-2.732 -17.913)" style="fill: none;stroke: #231f20;stroke-miterlimit: 10;stroke-width: 4px"/>
      </g>
    </g>
    <g id="dot-grp">
      <g style="clip-path: url(#clip-path-12)">
        <path d="M72.041,56.982a2.062,2.062,0,0,0-.314.188l-.209.365.157.179.366.042.543-.095c.063-.01.22.176.272-.126s-.157-.355-.157-.355l-.188.011-.32.031a.469.469,0,0,0-.077.094.487.487,0,0,0-.032.115l.106.083.02.009.026.012a.477.477,0,0,1,.124-.016l.073.016.317.039.1.073.028.074a1,1,0,0,1-.032.15c-.01.014-.069.1-.069.1l-.164.151-.342.062-.2.021-.08.01-.2-.01-.049-.007L71.7,58.16s-.031-.042-.045-.056a1.268,1.268,0,0,1-.07-.118,1.234,1.234,0,0,0-.2-.1l-.132-.053h-.189s-.048-.028-.048-.069a.121.121,0,0,1,.069-.091,1.444,1.444,0,0,1,.147-.014l.111.021.077.042" transform="translate(-2.732 -17.913)" style="fill: none;stroke: #231f20;stroke-miterlimit: 10;stroke-width: 3px"/>
      </g>
    </g>
    <g id="i-grp">
      <g style="clip-path: url(#clip-path-13)">
        <path d="M76.5,46.611l-.278.278v.342l.278.325h.157l.426-.139.278-.334s-.055-.325,0-.357,0-.254,0-.254L77,46.193l-.5.113-.529.3v.445l.2.5.333.25s.028.194.417,0l.389-.2.252-.38v-.505l-.114-.254-.083-.222-.25-.125h-.454l-.574.069-.277.4-.084.634.1.366.237.347.236.139.208.028.157.028.135.042c.041.013.083.111.083.111l-.208.125s-.014.041-.167.041h-.208s-.014-.014-.111-.027a1.191,1.191,0,0,1-.21-.056v-.111l-.068-.042" transform="translate(-2.732 -17.913)" style="fill: none;stroke: #231f20;stroke-miterlimit: 10;stroke-width: 4px"/>
        <path d="M75.208,55.6l-.222.734-.055.363a3.759,3.759,0,0,0,.208.841.518.518,0,0,0,.667,0c.222-.2.1-.424.165-.882a5.257,5.257,0,0,0,0-1.1s.293-1.764.321-1.889.194-1.223.264-1.926l.037-.26-.149-.166-.111.037L76.2,51.5l-.723,4.831V57.2s-.037.277.13.2a.527.527,0,0,0,.23-.317,2.126,2.126,0,0,1,.027-.453l-.052-.306V56.1l.01-.4.021-.429L75.9,54.8" transform="translate(-2.732 -17.913)" style="fill: none;stroke: #231f20;stroke-miterlimit: 10;stroke-width: 4px"/>
      </g>
    </g>
    <g id="d1-grp">
      <g style="clip-path: url(#clip-path-14)">
        <path d="M86.917,50l.227-1.833s.384-.723.467-.936.833-1.675,1.139-2.148.222-.666.4-1.168c.115-.326,0-.211,0-.211l-.333-.185a1.455,1.455,0,0,0-.426.564l-1.028,2.643L86.611,50l-.194.972-.139.389c-1.2-.111-1.778-.389-2.611-.139A14.438,14.438,0,0,0,81.25,52a13.806,13.806,0,0,0-1,1.583A5.48,5.48,0,0,0,79.778,55a13.28,13.28,0,0,0-.154,1.639,1.351,1.351,0,0,0,.32.667c.112.138-.111.25.778.194A6.14,6.14,0,0,0,83,56.434l1.1-.906,1.264-1.7s.5-.861.528-.944.389-1.056.389-1.056l.194-.389-.25,1.723-.083,1.611s.055.472.111.8-.111.34.139.851.194.649.417.733a1.583,1.583,0,0,1,.338.166l.134.028a.441.441,0,0,0,.426-.176l-.148-.333L87.3,56.7c-.185-.371-.324-.676-.407-.871a2.672,2.672,0,0,1-.167-.722,2.538,2.538,0,0,0-.3-.618l-.556-.521" transform="translate(-2.732 -17.913)" style="fill: none;stroke: #231f20;stroke-miterlimit: 10;stroke-width: 4px"/>
      </g>
    </g>
  </g>
</svg>
