<svg xmlns="http://www.w3.org/2000/svg" xmlns:xlink="http://www.w3.org/1999/xlink" width="588" height="151.927" viewBox="0 0 588 151.927"><defs><path id="a" d="M0 0h588v151.927H0z"/></defs><clipPath id="b"><use xlink:href="#a" overflow="visible"/></clipPath><g clip-path="url(#b)"><path fill="#f29a7f" d="M602.714 83.713s-15.003-18.265-36.891-20.235c-21.889-1.967-31.721 2.29-50.738-2.609-19.021-4.899-38.793-29.696-57.018-33.504-18.223-3.81-35.74.212-48.769-9.059-13.027-9.27-39.573-37.056-61.519-29.382-21.945 7.673-30.094 38.247-12.795 51.08 17.297 12.832 38.715 14.726 49.462 23.159 10.746 8.432 16.564 32.983 41.092 39.705 24.522 6.722 31.174-1.89 49.62 15.945 18.448 17.837 32.332 33.997 75.902 33.075s52.663-15.908 53.883-26.814c1.222-10.908-2.229-41.361-2.229-41.361"/><path fill="#FFF" d="M618.166 114.675c-.161-.062-11.41-4.372-29.439-8.181l-2.126-15.682c-.56-4.107-1.12-8.213-1.547-11.293-.362-2.653-.562-4.104-.747-4.92a.664.664 0 0 0-.106-.416c-.253-.814-.67-1.1-1.438-1.012a.723.723 0 0 0-.479.273l-.625.814a.713.713 0 0 0-.115.633c.164.948 2.546 18.48 4.241 30.997a269.31 269.31 0 0 0-25.169-3.8l-5.396-18.961a.706.706 0 0 0-.875-.488l-1.363.388a.713.713 0 0 0-.49.875l5.097 17.905c-6.474-.573-12.566-.801-18.425-.859l-4.557-20.088a.71.71 0 0 0-.846-.535l-1.386.312a.703.703 0 0 0-.441.314.694.694 0 0 0-.093.534l4.411 19.443c-3.739-.008-7.401.033-11.013.075-4.118.051-8.109.094-12.028.062l-3.712-19.701a.706.706 0 0 0-.826-.567l-1.395.263a.714.714 0 0 0-.565.828l3.604 19.137c-7.562-.146-14.891-.673-22.343-2.141l-8.586-24.411a.709.709 0 0 0-.904-.432l-1.336.468a.72.72 0 0 0-.404.364.699.699 0 0 0-.031.542l8.008 22.766a90.603 90.603 0 0 1-12.765-3.998 187.394 187.394 0 0 0-8.309-3.045l-4.162-16.573a.71.71 0 0 0-.858-.515l-1.375.346a.709.709 0 0 0-.517.86l3.718 14.812a168.032 168.032 0 0 0-20.422-5.183l-4.799-15.716a.708.708 0 0 0-.883-.471l-1.358.415a.708.708 0 0 0-.472.884l4.378 14.335c-6.857-1.161-13.618-1.892-20.442-2.347l-5.246-15.822a.705.705 0 0 0-.894-.45l-1.347.444a.713.713 0 0 0-.413.356.715.715 0 0 0-.038.541l4.891 14.752c-7.302-.403-14.711-.545-22.448-.607-.653-.004-1.287-.029-1.923-.053l-8.463-17.057a.687.687 0 0 0-.406-.356.726.726 0 0 0-.542.035l-1.273.632a.713.713 0 0 0-.317.95l7.736 15.596c-8.905-.803-15.895-3.394-20.977-6.094l-4.414-19.464a.707.707 0 0 0-.849-.534l-1.382.312a.715.715 0 0 0-.535.849l3.825 16.877c-.148-.098-.309-.194-.453-.29-6.319-4.141-9.43-8.34-9.462-8.382-.229-.316-.643-.35-.988-.158l-1.148.832a.708.708 0 0 0-.157.991c.134.185 3.379 4.604 10.144 9.051.736.485 1.543.982 2.402 1.481l-15.835 6.681a.71.71 0 0 0-.376.93l.549 1.305c.155.36.569.529.928.378l17.903-7.551c.015-.008.028-.017.045-.025 4.927 2.42 11.338 4.616 19.212 5.493l-11.595 9a.71.71 0 0 0-.127.994l.87 1.121a.707.707 0 0 0 .969.143c.008-.004.017-.012.025-.018l14.049-10.904c.833.039 1.681.064 2.547.071 7.682.063 15.036.2 22.283.603L397.62 95.473a.748.748 0 0 0-.293.456.702.702 0 0 0 .115.53l.809 1.166c.223.318.664.4.986.177l17.819-12.372.005-.004c.177-.123.246-.32.264-.525 5.778.409 11.511 1.018 17.303 1.933-7.21 6.067-13.119 10.753-13.975 11.066a.713.713 0 0 0-.49.804l.183 1.34c.019.189.11.361.253.482a.716.716 0 0 0 .519.158c.335-.029.874-.222 2.527-1.389 3.367-2.379 9.577-7.537 14.639-11.833a165.308 165.308 0 0 1 21.787 5.458l-24.652 15.117a.684.684 0 0 0-.318.438.722.722 0 0 0 .086.539l.743 1.207a.708.708 0 0 0 .975.232l26.651-16.344c2.416.84 4.856 1.722 7.353 2.711a93.8 93.8 0 0 0 13.309 4.164l-18.859 13.312a.713.713 0 0 0-.291.46.714.714 0 0 0 .12.528l.818 1.158a.71.71 0 0 0 .989.17l20.993-14.822c6.467 1.24 12.835 1.779 19.333 1.996l-18.315 15.973a.711.711 0 0 0-.067 1.002l.933 1.066c.241.275.648.32.941.113.019-.016.039-.029.06-.047l20.642-18.006c4.483.062 9.053.008 13.778-.049 3.196-.038 6.434-.072 9.728-.074l-18.254 19.66a.711.711 0 0 0 .039 1.004l1.036.964a.713.713 0 0 0 1.005-.039l20.023-21.573c5.674.054 11.562.263 17.787.792l-16.182 19.05a.706.706 0 0 0 .081.999l1.08.918a.71.71 0 0 0 1.001-.08l17.476-20.574a267.398 267.398 0 0 1 24.457 3.653l-21.802 24.852a.708.708 0 0 0 .062.999l1.068.936a.712.712 0 0 0 .877.047.76.76 0 0 0 .122-.111l22.871-26.07c17.981 3.77 29.215 8.065 29.376 8.128a.709.709 0 0 0 .919-.405l.513-1.32a.711.711 0 0 0-.41-.919"/></g></svg>