<svg xmlns="http://www.w3.org/2000/svg" xmlns:xlink="http://www.w3.org/1999/xlink" width="588" height="89.519" viewBox="0 0 588 89.519"><defs><path id="a" d="M0 0h588v89.519H0z"/></defs><clipPath id="b"><use xlink:href="#a" overflow="visible"/></clipPath><path clip-path="url(#b)" fill="#f29a7f" d="M515.248 92.698a1.4 1.4 0 0 0 .062-.28c.397-3.861 8.719-84.869 3.27-84.362-3.163.294-5.859 36.576-7.043 42.691-1.186 6.114-5.699 43.558-6.503 46.441-.238.859-1.463.84-1.664-.03-1.236-5.294-3.638-15.631-4.891-21.303-1.729-7.845-4.985-34.816-6.37-38.943-.488-1.457-1.461-6.092-2.514-11.476-.315-1.616-2.715-1.303-2.607.34.54 8.14 1.055 16.029 1.213 18.881.374 6.722 2.547 34.169 2.547 34.169l1.398 25.106a1.32 1.32 0 0 1-1.631 1.353s-10.524-39.053-14.251-51.074c-4.11-13.255-6.147-39.901-8.843-46.031-1.011-2.301-1.981-4.918-2.801-7.293-.474-1.382-2.518-1.069-2.561.392-.153 5.28 1.791 10.748 1.935 13.787.258 5.481 3.985 24.715 5.369 28.839 1.027 3.064 7.26 34.688 10.402 50.767.293 1.499-1.773 2.204-2.468.844-4.301-8.464-10.644-20.853-13.116-25.23-3.799-6.726-26.078-47.095-27.168-49.068a1.14 1.14 0 0 0-.1-.149L424.86 5.191c-.926-1.223-2.843-.15-2.278 1.277 1.33 3.375 2.959 7.141 4.568 9.955 3.735 6.533 19.265 34.992 19.265 34.992s14.507 24.175 14.939 26.138c.233 1.066 3.864 8.406 7.13 14.877.701 1.397-1.179 2.638-2.187 1.442-9.483-11.265-25.16-29.797-28.957-33.73-5.536-5.742-30.097-26.355-33.239-30.567-3.145-4.213-10.788-13.761-12.75-13.328-1.96.433 9.662 15.116 12.489 18.605 2.826 3.49 23.621 25.331 26.289 28.461 2.667 3.131 16.426 24.621 17.938 26.108.907.89 5.205 7.387 8.51 12.454.804 1.235-.718 2.656-1.896 1.773-5.608-4.203-13.578-10.249-16.22-12.584-4.226-3.737-25.916-21.739-27.273-22.864-1.354-1.127-21.502-14.644-22.338-15.566-.834-.923-18.531-17.67-21.056-16.56s9.836 11.598 14.06 15.334c4.227 3.736 22.168 19.084 26.19 23.34 4.023 4.256 19.138 16.111 21.965 19.604 2.826 3.49 17.334 16.906 17.969 18.349.634 1.441-24.215-16.893-29.522-20.154-5.307-3.259-18.129-7.948-25.064-13.937-6.938-5.985-23.062-15.248-26.133-17.339-3.071-2.091-9.199-10.155-12.2-10.125-3.001.029.302 4.6 6.921 9.865 6.621 5.265 17.984 14.468 25.845 19.618 7.858 5.149 10.036 11.078 17.853 17.108 7.816 6.029 20.494 17.238 24.086 19.531 3.59 2.295-38.25-18.466-38.25-18.466s-18.445-8.67-19.961-10.156c-1.512-1.485-24.11-11.773-25.192-11.297-1.084.476 2.94 4.731 11.681 9.925 8.738 5.193 16.527 8.224 28.178 15.148 11.655 6.924 23.827 14.051 31.729 18.32 7.903 4.271 17.683 9.868 19.716 11.556 1.938 1.608 23.635-.777 25.653-1.003.104-.012.199-.034.297-.071l39.937-14.454a9.028 9.028 0 0 0 5.486-5.609l6.21-18.463z"/></svg>